<?xml version="1.0" encoding="utf-8"?>
<!-- Generator: Adobe Illustrator 23.0.3, SVG Export Plug-In . SVG Version: 6.00 Build 0)  -->
<svg version="1.1" id="Layer_1" xmlns="http://www.w3.org/2000/svg" xmlns:xlink="http://www.w3.org/1999/xlink" x="0px" y="0px"
	 width="161px" height="94px" viewBox="0 0 161 94" style="enable-background:new 0 0 161 94;" xml:space="preserve">
<style type="text/css">
	.st0{fill:#ED5537;}
	.st1{fill:#FFB688;}
</style>
<g id="_x36_0_x25_">
	<g>
		<path class="st0" d="M42.1,50c-3.1-1.6-6.7-2.4-10.6-2.4c-2.9,0-5.7,0.4-8.4,1.3c-2.7,0.9-4.9,2.1-6.5,3.6c-0.1-0.2-0.1-0.5-0.1-1
			c0-8.2,1.2-14.1,3.5-17.7c2.3-3.6,5.4-5.5,9.2-5.5c1.6,0,3.2,0.2,4.6,0.7c1.4,0.5,2.5,1.2,3.3,2.1c-1.1,0.6-1.9,1.4-2.6,2.4
			c-0.7,1-1,2-1,3c0,2,0.8,3.7,2.3,5s3.4,2,5.7,2c2.5,0,4.4-0.8,5.8-2.4s2.1-3.7,2.1-6.1c0-4.3-1.9-7.6-5.7-9.9
			c-3.8-2.3-8.7-3.5-14.5-3.5c-5.5,0-10.5,1.3-14.9,3.8C10,28.1,6.5,32,3.9,37.4C1.3,42.7,0,49.2,0,57c0,7.1,1.1,13.1,3.3,18
			c2.2,4.9,5.2,8.5,9.2,11c3.9,2.4,8.6,3.7,13.9,3.7c5,0,9.5-1,13.4-3c4-2,7-4.7,9.2-8.1s3.3-7.2,3.3-11.4c0-3.9-0.9-7.4-2.7-10.3
			C47.7,53.9,45.2,51.6,42.1,50z M33.6,79.4c-1.9,2.1-4.2,3.1-7,3.1c-3,0-5.4-1.4-7.3-4.3s-2.9-7.5-2.9-14c0-1.7,0-3,0.1-3.9
			c0.8-1.6,2.1-2.9,3.7-3.7c1.6-0.8,3.6-1.2,5.8-1.2c3,0,5.5,1.1,7.5,3.4c1.9,2.3,2.9,5.8,2.9,10.5C36.4,74,35.4,77.3,33.6,79.4z"/>
		<path class="st0" d="M82.6,21.6c-8.7,0-15.4,2.7-20.1,8.2c-4.8,5.5-7.1,14.3-7.1,26.6c0,22.3,9,33.4,27.1,33.4
			c18.2,0,27.4-11.1,27.4-33.3c0-12.3-2.3-21.2-7-26.6C98,24.3,91.3,21.6,82.6,21.6z M91.4,73c-0.9,3.9-2.1,6.6-3.6,8
			c-1.5,1.4-3.3,2.1-5.4,2.1c-2,0-3.8-0.7-5.3-2.1c-1.5-1.4-2.7-4.1-3.6-8c-0.9-3.9-1.3-9.4-1.3-16.5c0-7.8,0.5-13.8,1.4-17.9
			c0.9-4.1,2.1-6.9,3.6-8.3c1.5-1.4,3.3-2.1,5.4-2.1s3.9,0.7,5.3,2.1c1.5,1.4,2.6,4.1,3.5,8.2c0.9,4.1,1.3,10,1.3,17.7
			C92.7,63.5,92.3,69.1,91.4,73z"/>
		<path class="st0" d="M125.7,64.1c0.7,0.3,1.3,0.4,1.8,0.5l19-38.8c-0.5-0.4-1-0.8-1.7-1s-1.3-0.4-1.9-0.5L124.1,63
			C124.5,63.5,125.1,63.8,125.7,64.1z"/>
		<path class="st0" d="M122.6,48c2.8,0,5-0.9,6.6-2.6c1.6-1.7,2.4-4.4,2.4-8.1c0-3.7-0.8-6.4-2.4-8.1c-1.6-1.7-3.8-2.6-6.6-2.6
			s-5,0.9-6.6,2.6c-1.6,1.7-2.4,4.4-2.4,8.1c0,3.7,0.8,6.4,2.4,8.1C117.5,47.1,119.7,48,122.6,48z M120.8,31c0.4-1.1,1-1.6,1.8-1.6
			s1.4,0.5,1.8,1.6c0.4,1.1,0.6,3.1,0.6,6.2s-0.2,5.2-0.6,6.3s-1,1.7-1.8,1.7c-0.7,0-1.3-0.6-1.7-1.7c-0.4-1.1-0.6-3.2-0.6-6.2
			C120.2,34.1,120.4,32,120.8,31z"/>
		<path class="st0" d="M139,51.3c0,3.7,0.8,6.4,2.3,8.1c1.6,1.7,3.8,2.6,6.6,2.6c2.8,0,5-0.9,6.6-2.6c1.6-1.7,2.4-4.5,2.4-8.1
			s-0.8-6.4-2.4-8.1c-1.6-1.7-3.8-2.6-6.7-2.6c-2.8,0-5,0.9-6.6,2.6C139.8,44.9,139,47.6,139,51.3z M146.2,45c0.4-1.1,1-1.6,1.8-1.6
			s1.4,0.5,1.8,1.6c0.4,1.1,0.6,3.2,0.6,6.2c0,3.1-0.2,5.2-0.6,6.3c-0.4,1.1-1,1.7-1.7,1.7c-0.8,0-1.4-0.6-1.8-1.7
			c-0.4-1.1-0.6-3.2-0.6-6.3C145.6,48.2,145.8,46.1,146.2,45z"/>
		<path class="st0" d="M3.2,6.2v5.6c0,1.6,0.4,2.8,1.3,3.6c0.9,0.8,2,1.2,3.6,1.2c1.5,0,2.6-0.4,3.4-1.3c0.8-0.9,1.1-2.1,1.1-3.7
			V6.2c0-0.3,0.1-0.5,0.3-0.7s0.5-0.2,1-0.2c0-0.4-0.1-0.8-0.4-1.1H9.6C9.4,4.5,9.3,4.8,9.3,5.3c0.4,0,0.8,0.1,1,0.2
			c0.2,0.1,0.3,0.4,0.3,0.7v6.3c0,0.7-0.2,1.3-0.5,1.8c-0.3,0.5-0.9,0.7-1.6,0.7s-1.3-0.3-1.6-0.8s-0.5-1.2-0.5-2v-6
			c0-0.3,0.1-0.5,0.2-0.7s0.4-0.2,0.8-0.2c0-0.4-0.1-0.8-0.4-1.1H2.5C2.3,4.5,2.1,4.9,2.1,5.3c0.4,0,0.7,0.1,0.8,0.2
			C3.1,5.6,3.2,5.9,3.2,6.2z"/>
		<path class="st0" d="M15.2,15.1c-0.2,0.1-0.5,0.2-0.8,0.2c0,0.2,0,0.4,0.1,0.6s0.2,0.4,0.3,0.5h5.1c0.1-0.1,0.2-0.3,0.3-0.5
			c0.1-0.2,0.1-0.4,0.1-0.6c-0.5,0-0.9,0-1.2-0.1s-0.4-0.2-0.5-0.5c-0.1-0.2-0.2-0.6-0.2-1v-1.5H19c1.1,0,2.1-0.2,2.9-0.5
			c0.8-0.3,1.4-0.8,1.7-1.4s0.6-1.3,0.6-2.1c0-1.3-0.4-2.3-1.2-3c-0.8-0.7-2-1-3.8-1c-0.2,0-0.7,0-1.3,0c-1.3,0.1-2.4,0.1-3.2,0.1
			c-0.3,0.3-0.4,0.7-0.4,1.1c0.4,0,0.7,0.1,0.8,0.2c0.2,0.1,0.3,0.4,0.3,0.7v8.2C15.4,14.7,15.3,14.9,15.2,15.1z M18.3,5.5
			c0.2,0,0.4-0.1,0.6-0.1c0.8,0,1.4,0.2,1.7,0.7C21,6.6,21.2,7.2,21.2,8c0,0.8-0.2,1.4-0.5,1.9s-1,0.8-1.9,0.8c-0.2,0-0.3,0-0.5,0
			L18.3,5.5L18.3,5.5z"/>
		<path class="st0" d="M31.5,5.6h0.4v8.7c0,0.6-0.7,0.9-2,0.9c0,0.2,0,0.4,0.1,0.6c0.1,0.2,0.2,0.4,0.3,0.5h5.9
			c0.1-0.1,0.2-0.3,0.3-0.5c0.1-0.2,0.1-0.4,0.1-0.6c-0.6,0-1.1-0.1-1.4-0.2c-0.3-0.2-0.5-0.4-0.5-0.7V5.6h0.3c0.4,0,0.8,0.1,1,0.3
			s0.5,0.5,0.6,1S37,8.1,37.1,9C37.4,9,37.7,9,38,9c0.3,0,0.6-0.1,0.7-0.1c0-0.7-0.1-1.6-0.2-2.6c-0.1-1.1-0.2-1.8-0.4-2.2
			c-0.5,0-1,0.1-1.4,0.2h-6.8C29.4,4.1,29,4,28.4,4c-0.2,0.4-0.3,1.1-0.4,2.2c-0.1,1.1-0.2,1.9-0.2,2.6C28.1,8.9,28.6,9,29.4,9
			C29.6,6.7,30.3,5.6,31.5,5.6z"/>
		<path class="st0" d="M41.4,15.8c0.8,0.5,1.8,0.8,2.9,0.8c1.1,0,2-0.2,2.8-0.8c0.8-0.5,1.4-1.2,1.9-2.2s0.7-2.1,0.7-3.4
			c0-1.3-0.2-2.4-0.7-3.3C48.6,6,48,5.3,47.2,4.8C46.4,4.3,45.4,4,44.3,4c-1.1,0-2,0.2-2.8,0.8C40.6,5.3,40,6,39.6,6.9
			c-0.4,0.9-0.7,2.1-0.7,3.4c0,1.3,0.2,2.4,0.6,3.3C40,14.6,40.6,15.3,41.4,15.8z M42.8,6.4c0.4-0.7,0.9-1.1,1.6-1.1
			c0.7,0,1.2,0.4,1.6,1.1c0.4,0.7,0.6,2,0.6,3.9c0,1.9-0.2,3.3-0.6,4c-0.4,0.7-0.9,1.1-1.6,1.1c-0.7,0-1.2-0.4-1.6-1.1
			c-0.4-0.7-0.6-2-0.6-3.9C42.2,8.5,42.4,7.1,42.8,6.4z"/>
		<path class="st0" d="M125.6,72.2c-1.2-0.7-2.5-1.1-4.1-1.1c-1.5,0-2.9,0.4-4,1.1s-2,1.7-2.7,3.1c-0.6,1.4-0.9,3-0.9,4.8
			c0,1.8,0.3,3.4,0.9,4.7s1.5,2.4,2.7,3.1c1.2,0.7,2.5,1.1,4.1,1.1c1.5,0,2.9-0.4,4.1-1.1c1.2-0.7,2.1-1.7,2.7-3.1
			c0.6-1.4,1-3,1-4.8c0-1.8-0.3-3.4-0.9-4.7C127.7,74,126.8,73,125.6,72.2z M123.7,85.7c-0.6,1-1.3,1.6-2.2,1.6
			c-0.9,0-1.7-0.5-2.2-1.6c-0.5-1.1-0.8-2.9-0.8-5.5c0-2.7,0.3-4.6,0.9-5.7s1.3-1.6,2.2-1.6c1,0,1.7,0.5,2.2,1.6s0.8,2.9,0.8,5.5
			C124.6,82.8,124.3,84.7,123.7,85.7z"/>
		<path class="st0" d="M142.6,71c-0.6,0-1.2,0.1-1.9,0.4h-9.5c-0.4,0.4-0.6,1-0.6,1.6c0.5,0,0.9,0.1,1.2,0.3c0.3,0.2,0.4,0.5,0.4,1
			v11.7c0,0.5-0.1,0.8-0.3,1c-0.2,0.2-0.7,0.3-1.3,0.3c0,0.3,0.1,0.6,0.1,0.9c0.1,0.3,0.2,0.5,0.4,0.7h8.4c0.3-0.3,0.4-0.9,0.4-1.7
			h-2c-0.6,0-1.1-0.1-1.3-0.3s-0.3-0.6-0.3-1.1v-4.4h2.1c0.5,0,0.8,0.1,1,0.4c0.2,0.3,0.3,0.8,0.3,1.5c0.4,0,0.8-0.1,1.2-0.1
			c0.4-0.1,0.7-0.2,1-0.4v-4.6c-0.2-0.2-0.6-0.3-1-0.4c-0.4-0.1-0.8-0.1-1.2-0.1c0,0.7-0.1,1.2-0.3,1.5c-0.2,0.3-0.5,0.5-1,0.5h-2
			v-5.8h2.2c0.8,0,1.4,0.2,1.8,0.6c0.5,0.4,0.8,0.9,1,1.6c0.3-0.1,0.7-0.2,1.2-0.4c0.4-0.2,0.7-0.4,0.9-0.6c0-0.4-0.1-1.1-0.3-1.9
			C142.9,72,142.8,71.4,142.6,71z"/>
		<path class="st0" d="M152.5,73.5c0.8,0,1.4,0.2,1.8,0.6c0.5,0.4,0.8,0.9,1,1.6c0.3-0.1,0.7-0.2,1.2-0.4c0.4-0.2,0.7-0.4,0.9-0.6
			c0-0.4-0.1-1.1-0.3-1.9c-0.2-0.8-0.4-1.4-0.6-1.8c-0.6,0-1.2,0.1-1.9,0.4h-9.5c-0.4,0.4-0.6,1-0.6,1.6c0.5,0,0.9,0.1,1.2,0.3
			c0.3,0.2,0.4,0.5,0.4,1v11.7c0,0.5-0.1,0.8-0.3,1c-0.2,0.2-0.7,0.3-1.3,0.3c0,0.3,0.1,0.6,0.1,0.9c0.1,0.3,0.2,0.5,0.4,0.7h8.4
			c0.3-0.3,0.4-0.9,0.4-1.7h-2c-0.6,0-1.1-0.1-1.3-0.3s-0.3-0.6-0.3-1.1v-4.4h2.1c0.5,0,0.8,0.1,1,0.4c0.2,0.3,0.3,0.8,0.3,1.5
			c0.4,0,0.8-0.1,1.2-0.1c0.4-0.1,0.7-0.2,1-0.4v-4.6c-0.2-0.2-0.6-0.3-1-0.4s-0.8-0.1-1.2-0.1c0,0.7-0.1,1.2-0.3,1.5
			c-0.2,0.3-0.5,0.5-1,0.5h-2v-5.8L152.5,73.5L152.5,73.5z"/>
	</g>
</g>
<g>
	<path d="M-65.9-69c3.1,1.6,5.6,3.8,7.4,6.8c1.8,2.9,2.7,6.4,2.7,10.3c0,4.2-1.1,8-3.3,11.4s-5.3,6.1-9.2,8.1c-4,2-8.4,3-13.4,3
		c-5.3,0-9.9-1.2-13.9-3.7c-3.9-2.4-7-6.1-9.2-11c-2.2-4.9-3.3-10.9-3.3-18c0-7.8,1.3-14.3,3.9-19.7c2.6-5.3,6.1-9.3,10.5-11.8
		c4.4-2.6,9.4-3.8,14.9-3.8c5.8,0,10.7,1.2,14.5,3.5c3.8,2.3,5.7,5.6,5.7,9.9c0,2.5-0.7,4.5-2.1,6.1c-1.4,1.6-3.4,2.4-5.8,2.4
		c-2.3,0-4.2-0.7-5.7-2s-2.3-3-2.3-5c0-1,0.3-2,1-3c0.7-1,1.5-1.8,2.6-2.4c-0.8-0.9-1.9-1.7-3.3-2.1c-1.4-0.5-3-0.7-4.6-0.7
		c-3.8,0-6.9,1.8-9.2,5.5c-2.3,3.6-3.5,9.5-3.5,17.7c0,0.5,0,0.9,0.1,1c1.6-1.5,3.8-2.7,6.5-3.6c2.7-0.9,5.5-1.3,8.4-1.3
		C-72.6-71.4-69-70.6-65.9-69z M-74.4-39.6c1.9-2.1,2.8-5.4,2.8-10c0-4.8-1-8.3-2.9-10.5c-1.9-2.3-4.4-3.4-7.5-3.4
		c-2.2,0-4.1,0.4-5.8,1.2c-1.6,0.8-2.9,2.1-3.7,3.7c-0.1,0.9-0.1,2.2-0.1,3.9c0,6.5,0.9,11.1,2.8,14s4.3,4.3,7.3,4.3
		C-78.6-36.5-76.3-37.5-74.4-39.6z"/>
	<path d="M-52.7-62.6c0-12.2,2.4-21.1,7.1-26.6c4.8-5.5,11.5-8.2,20.1-8.2c8.7,0,15.5,2.7,20.1,8.2c4.7,5.5,7,14.4,7,26.6
		c0,22.2-9.1,33.3-27.4,33.3C-43.7-29.2-52.7-40.3-52.7-62.6z M-20.2-38c1.5-1.4,2.7-4.1,3.6-8c0.9-3.9,1.3-9.5,1.3-16.7
		c0-7.7-0.4-13.6-1.3-17.7c-0.9-4.1-2.1-6.8-3.5-8.2c-1.5-1.4-3.2-2.1-5.3-2.1s-3.9,0.7-5.4,2.1c-1.5,1.4-2.7,4.2-3.6,8.3
		c-0.9,4.1-1.4,10.1-1.4,17.9c0,7.1,0.4,12.6,1.3,16.5c0.9,3.9,2.1,6.6,3.6,8c1.5,1.4,3.2,2.1,5.3,2.1C-23.5-35.8-21.7-36.6-20.2-38
		z"/>
</g>
<g>
	<path d="M8-73.6c-1.6-1.7-2.4-4.5-2.4-8.1c0-3.7,0.8-6.4,2.4-8.1c1.6-1.7,3.8-2.6,6.6-2.6c2.8,0,5,0.9,6.6,2.6
		c1.6,1.7,2.4,4.4,2.4,8.1c0,3.7-0.8,6.4-2.4,8.1c-1.6,1.7-3.8,2.6-6.6,2.6C11.7-71,9.5-71.9,8-73.6z M16.3-75.5
		c0.4-1.2,0.6-3.3,0.6-6.3S16.8-87,16.4-88c-0.4-1.1-1-1.6-1.8-1.6s-1.4,0.5-1.8,1.6c-0.4,1.1-0.6,3.2-0.6,6.3c0,3,0.2,5.1,0.6,6.2
		c0.4,1.1,1,1.7,1.7,1.7C15.3-73.8,15.9-74.4,16.3-75.5z M17.7-54.9c-0.7-0.3-1.2-0.7-1.6-1.1L35-94.7c0.6,0,1.2,0.2,1.9,0.5
		c0.6,0.3,1.2,0.6,1.7,1l-19,38.8C19-54.5,18.4-54.6,17.7-54.9z M33.4-59.6C31.8-61.3,31-64,31-67.7c0-3.7,0.8-6.4,2.4-8.1
		c1.6-1.7,3.8-2.6,6.6-2.6c2.9,0,5.1,0.9,6.7,2.6c1.6,1.8,2.4,4.5,2.4,8.1s-0.8,6.4-2.4,8.1c-1.6,1.7-3.8,2.6-6.6,2.6
		C37.1-56.9,34.9-57.8,33.4-59.6z M41.7-61.5c0.4-1.1,0.6-3.2,0.6-6.3c0-3.1-0.2-5.1-0.6-6.2c-0.4-1.1-1-1.6-1.8-1.6
		s-1.4,0.5-1.8,1.6c-0.4,1.1-0.6,3.2-0.6,6.3c0,3.1,0.2,5.1,0.6,6.3c0.4,1.1,1,1.7,1.8,1.7C40.7-59.8,41.3-60.3,41.7-61.5z"/>
</g>
<g>
	<path d="M-95.4-107.4c0,1.6-0.4,2.9-1.1,3.7c-0.8,0.9-1.9,1.3-3.4,1.3c-1.5,0-2.7-0.4-3.6-1.2c-0.9-0.8-1.3-2-1.3-3.6v-5.6
		c0-0.3-0.1-0.5-0.2-0.7c-0.2-0.1-0.4-0.2-0.8-0.2c0-0.4,0.1-0.8,0.4-1.1h4.4c0.3,0.3,0.4,0.7,0.4,1.1c-0.4,0-0.7,0.1-0.8,0.2
		c-0.2,0.1-0.2,0.4-0.2,0.7v6c0,0.8,0.2,1.5,0.5,2c0.4,0.5,0.9,0.8,1.6,0.8s1.3-0.2,1.6-0.7c0.3-0.5,0.5-1.1,0.5-1.8v-6.3
		c0-0.3-0.1-0.5-0.3-0.7c-0.2-0.1-0.5-0.2-1-0.2c0-0.5,0.1-0.8,0.4-1.1h3.8c0.3,0.3,0.4,0.7,0.4,1.1c-0.4,0-0.8,0.1-1,0.2
		c-0.2,0.1-0.3,0.4-0.3,0.7L-95.4-107.4L-95.4-107.4z"/>
	<path d="M-85-113.9c0.8,0.7,1.2,1.6,1.2,3c0,0.8-0.2,1.5-0.6,2.1c-0.4,0.6-1,1.1-1.7,1.4s-1.7,0.5-2.9,0.5h-0.7v1.5
		c0,0.5,0.1,0.8,0.2,1c0.1,0.2,0.3,0.4,0.6,0.5c0.3,0.1,0.7,0.1,1.2,0.1c0,0.2,0,0.4-0.1,0.6s-0.2,0.4-0.3,0.5h-5.1
		c-0.1-0.1-0.2-0.3-0.3-0.5s-0.1-0.4-0.1-0.6c0.4,0,0.7-0.1,0.8-0.2c0.2-0.1,0.3-0.4,0.3-0.7v-8.2c0-0.3-0.1-0.6-0.3-0.7
		c-0.2-0.1-0.5-0.2-0.8-0.2c0-0.4,0.1-0.8,0.4-1.1c0.8,0,1.8,0,3.2-0.1c0.7,0,1.1,0,1.3,0C-87-114.9-85.7-114.6-85-113.9z
		 M-87.4-112.8c-0.3-0.5-0.9-0.7-1.7-0.7c-0.3,0-0.5,0-0.6,0.1v5.1c0.1,0,0.3,0,0.5,0c1,0,1.6-0.3,1.9-0.8c0.3-0.5,0.5-1.2,0.5-1.9
		C-86.8-111.8-87-112.4-87.4-112.8z"/>
	<path d="M-69.5-112.8c0.1,1.1,0.2,1.9,0.2,2.6c-0.2,0.1-0.4,0.1-0.7,0.1c-0.3,0-0.6,0.1-0.9,0.1c-0.1-0.9-0.2-1.6-0.3-2.1
		c-0.2-0.5-0.4-0.8-0.6-1c-0.3-0.2-0.6-0.3-1-0.3h-0.3v8.7c0,0.3,0.2,0.6,0.5,0.7c0.3,0.2,0.8,0.2,1.4,0.2c0,0.2,0,0.4-0.1,0.6
		s-0.2,0.4-0.3,0.5h-5.9c-0.1-0.1-0.2-0.3-0.3-0.5s-0.1-0.4-0.1-0.6c1.3,0,2-0.3,2-0.9v-8.7h-0.4c-1.2,0-1.9,1.2-2.1,3.5
		c-0.8,0-1.3-0.1-1.6-0.2c0-0.7,0.1-1.6,0.2-2.6c0.1-1.1,0.2-1.8,0.4-2.2c0.5,0,1,0.1,1.4,0.2h6.8c0.4-0.1,0.9-0.2,1.4-0.2
		C-69.7-114.6-69.6-113.9-69.5-112.8z"/>
	<path d="M-66.6-103.2c-0.8-0.5-1.4-1.3-1.9-2.2c-0.4-1-0.6-2.1-0.6-3.3c0-1.3,0.2-2.4,0.7-3.4s1.1-1.7,1.9-2.2
		c0.8-0.5,1.8-0.8,2.8-0.8c1.1,0,2.1,0.3,2.9,0.8c0.8,0.5,1.4,1.3,1.9,2.2s0.7,2.1,0.7,3.3c0,1.3-0.2,2.4-0.7,3.4s-1.1,1.7-1.9,2.2
		c-0.8,0.5-1.8,0.8-2.8,0.8C-64.8-102.4-65.8-102.6-66.6-103.2z M-62.1-104.8c0.4-0.7,0.6-2.1,0.6-4c0-1.8-0.2-3.1-0.6-3.9
		c-0.4-0.7-0.9-1.1-1.6-1.1c-0.6,0-1.2,0.4-1.6,1.1c-0.4,0.7-0.6,2.1-0.6,4c0,1.8,0.2,3.1,0.6,3.9s0.9,1.1,1.6,1.1
		C-63.1-103.7-62.5-104-62.1-104.8z"/>
</g>
<g>
	<path d="M9.4-31c-1.2-0.7-2-1.8-2.7-3.1c-0.6-1.4-0.9-2.9-0.9-4.7c0-1.9,0.3-3.5,0.9-4.8s1.5-2.4,2.7-3.1c1.2-0.7,2.5-1.1,4-1.1
		c1.6,0,3,0.4,4.1,1.1c1.2,0.7,2.1,1.8,2.7,3.1c0.6,1.4,0.9,2.9,0.9,4.7c0,1.9-0.3,3.5-1,4.8s-1.5,2.4-2.7,3.1
		c-1.2,0.7-2.5,1.1-4.1,1.1C11.9-29.9,10.5-30.3,9.4-31z M15.7-33.3c0.6-1,0.9-2.9,0.9-5.7c0-2.6-0.3-4.5-0.8-5.5
		c-0.5-1-1.3-1.6-2.2-1.6c-0.9,0-1.7,0.5-2.2,1.6c-0.6,1-0.9,2.9-0.9,5.7c0,2.6,0.3,4.5,0.8,5.5c0.5,1.1,1.3,1.6,2.2,1.6
		C14.4-31.7,15.2-32.3,15.7-33.3z"/>
	<path d="M31.3-40.2c0.2-0.3,0.3-0.8,0.3-1.5c0.4,0,0.8,0,1.2,0.1c0.4,0.1,0.7,0.2,1,0.4v4.6c-0.2,0.2-0.6,0.3-1,0.4
		c-0.4,0.1-0.8,0.1-1.2,0.1c0-0.7-0.1-1.2-0.3-1.5c-0.2-0.3-0.5-0.4-1-0.4h-2.1v4.4c0,0.5,0.1,0.9,0.3,1.1s0.7,0.3,1.3,0.3h2
		c0,0.8-0.1,1.3-0.4,1.7h-8.4c-0.2-0.2-0.3-0.4-0.4-0.7c-0.1-0.3-0.1-0.6-0.1-0.9c0.7,0,1.1-0.1,1.3-0.3c0.2-0.2,0.3-0.5,0.3-1
		v-11.7c0-0.4-0.1-0.8-0.4-1S23.1-46,22.6-46c0-0.6,0.2-1.1,0.6-1.6h9.5c0.6-0.3,1.3-0.4,1.9-0.4c0.2,0.4,0.4,1,0.6,1.8
		s0.3,1.5,0.3,1.9c-0.2,0.2-0.5,0.4-0.9,0.6c-0.4,0.2-0.8,0.3-1.2,0.4c-0.2-0.6-0.5-1.1-1-1.6c-0.5-0.4-1.1-0.6-1.8-0.6h-2.2v5.8h2
		C30.8-39.7,31.1-39.8,31.3-40.2z"/>
	<path d="M45.3-40.2c0.2-0.3,0.3-0.8,0.3-1.5c0.4,0,0.8,0,1.2,0.1c0.4,0.1,0.7,0.2,1,0.4v4.6c-0.2,0.2-0.6,0.3-1,0.4
		c-0.4,0.1-0.8,0.1-1.2,0.1c0-0.7-0.1-1.2-0.3-1.5c-0.2-0.3-0.5-0.4-1-0.4h-2.1v4.4c0,0.5,0.1,0.9,0.3,1.1s0.7,0.3,1.3,0.3h2
		c0,0.8-0.1,1.3-0.4,1.7h-8.4c-0.2-0.2-0.3-0.4-0.4-0.7c-0.1-0.3-0.1-0.6-0.1-0.9c0.7,0,1.1-0.1,1.3-0.3c0.2-0.2,0.3-0.5,0.3-1
		v-11.7c0-0.4-0.1-0.8-0.4-1S37.2-46,36.6-46c0-0.6,0.2-1.1,0.6-1.6h9.5c0.6-0.3,1.3-0.4,1.9-0.4c0.2,0.4,0.4,1,0.6,1.8
		s0.3,1.5,0.3,1.9c-0.2,0.2-0.5,0.4-0.9,0.6c-0.4,0.2-0.8,0.3-1.2,0.4c-0.2-0.6-0.5-1.1-1-1.6c-0.5-0.4-1.1-0.6-1.8-0.6h-2.2v5.8h2
		C44.8-39.7,45.1-39.8,45.3-40.2z"/>
</g>
<g>
	<path d="M-56.9,107.2c-1.6-1.7-2.4-4.5-2.4-8.1c0-3.7,0.8-6.4,2.4-8.1c1.6-1.7,3.8-2.6,6.6-2.6c2.8,0,5,0.9,6.6,2.6
		c1.6,1.7,2.4,4.4,2.4,8.1c0,3.7-0.8,6.4-2.4,8.1c-1.6,1.7-3.8,2.6-6.6,2.6C-53.1,109.8-55.3,108.9-56.9,107.2z M-48.5,105.3
		c0.4-1.2,0.6-3.3,0.6-6.3s-0.2-5.1-0.6-6.2c-0.4-1.1-1-1.6-1.8-1.6s-1.4,0.5-1.8,1.6c-0.4,1.1-0.6,3.2-0.6,6.3c0,3,0.2,5.1,0.6,6.2
		c0.4,1.1,1,1.7,1.7,1.7C-49.5,107.1-48.9,106.5-48.5,105.3z M-47.1,125.9c-0.7-0.3-1.2-0.7-1.6-1.1l18.9-38.7
		c0.6,0,1.2,0.2,1.9,0.5c0.6,0.3,1.2,0.6,1.7,1l-19,38.8C-45.8,126.4-46.5,126.2-47.1,125.9z M-31.5,121.3c-1.6-1.7-2.3-4.5-2.3-8.1
		c0-3.7,0.8-6.4,2.4-8.1c1.6-1.7,3.8-2.6,6.6-2.6c2.9,0,5.1,0.9,6.7,2.6c1.6,1.8,2.4,4.5,2.4,8.1s-0.8,6.4-2.4,8.1
		c-1.6,1.7-3.8,2.6-6.6,2.6C-27.7,123.9-29.9,123-31.5,121.3z M-23.1,119.4c0.4-1.1,0.6-3.2,0.6-6.3c0-3.1-0.2-5.1-0.6-6.2
		c-0.4-1.1-1-1.6-1.8-1.6s-1.4,0.5-1.8,1.6c-0.4,1.1-0.6,3.2-0.6,6.3c0,3.1,0.2,5.1,0.6,6.3c0.4,1.1,1,1.7,1.8,1.7
		C-24.1,121.1-23.5,120.5-23.1,119.4z"/>
</g>
<g>
	<path d="M-160.2,73.5c0,1.6-0.4,2.9-1.1,3.7c-0.8,0.9-1.9,1.3-3.4,1.3c-1.5,0-2.7-0.4-3.6-1.2c-0.9-0.8-1.3-2-1.3-3.6V68
		c0-0.3-0.1-0.5-0.2-0.7c-0.2-0.1-0.4-0.2-0.8-0.2c0-0.4,0.1-0.8,0.4-1.1h4.4c0.3,0.3,0.4,0.7,0.4,1.1c-0.4,0-0.7,0.1-0.8,0.2
		c-0.2,0.1-0.2,0.4-0.2,0.7v6c0,0.8,0.2,1.5,0.5,2c0.4,0.5,0.9,0.8,1.6,0.8s1.3-0.2,1.6-0.7c0.3-0.5,0.5-1.1,0.5-1.8V68
		c0-0.3-0.1-0.5-0.3-0.7c-0.2-0.1-0.5-0.2-1-0.2c0-0.5,0.1-0.8,0.4-1.1h3.8c0.3,0.3,0.4,0.7,0.4,1.1c-0.4,0-0.8,0.1-1,0.2
		c-0.2,0.1-0.3,0.4-0.3,0.7V73.5L-160.2,73.5z"/>
	<path d="M-149.8,66.9c0.8,0.7,1.2,1.6,1.2,3c0,0.8-0.2,1.5-0.6,2.1c-0.4,0.6-1,1.1-1.7,1.4s-1.7,0.5-2.9,0.5h-0.7v1.5
		c0,0.5,0.1,0.8,0.2,1c0.1,0.2,0.3,0.4,0.6,0.5c0.3,0.1,0.7,0.1,1.2,0.1c0,0.2,0,0.4-0.1,0.6s-0.2,0.4-0.3,0.5h-5.1
		c-0.1-0.1-0.2-0.3-0.3-0.5c-0.1-0.2-0.1-0.4-0.1-0.6c0.4,0,0.7-0.1,0.8-0.2c0.2-0.1,0.3-0.4,0.3-0.7V68c0-0.3-0.1-0.6-0.3-0.7
		c-0.2-0.1-0.5-0.2-0.8-0.2c0-0.4,0.1-0.8,0.4-1.1c0.8,0,1.8,0,3.2-0.1c0.7,0,1.1,0,1.3,0C-151.8,65.9-150.6,66.2-149.8,66.9z
		 M-152.2,68c-0.3-0.5-0.9-0.7-1.7-0.7c-0.3,0-0.5,0-0.6,0.1v5.1c0.1,0,0.3,0,0.5,0c1,0,1.6-0.3,1.9-0.8s0.5-1.2,0.5-1.9
		C-151.7,69.1-151.9,68.5-152.2,68z"/>
	<path d="M-134.3,68.1c0.1,1.1,0.2,1.9,0.2,2.6c-0.2,0.1-0.4,0.1-0.7,0.1c-0.3,0-0.6,0.1-0.9,0.1c-0.1-0.9-0.2-1.6-0.3-2.1
		c-0.2-0.5-0.4-0.8-0.6-1c-0.3-0.2-0.6-0.3-1-0.3h-0.3v8.7c0,0.3,0.2,0.6,0.5,0.7c0.3,0.2,0.8,0.2,1.4,0.2c0,0.2,0,0.4-0.1,0.6
		c-0.1,0.2-0.2,0.4-0.3,0.5h-5.9c-0.1-0.1-0.2-0.3-0.3-0.5s-0.1-0.4-0.1-0.6c1.3,0,2-0.3,2-0.9v-8.7h-0.4c-1.2,0-1.9,1.2-2.1,3.5
		c-0.8,0-1.3-0.1-1.6-0.2c0-0.7,0.1-1.6,0.2-2.6c0.1-1.1,0.2-1.8,0.4-2.2c0.5,0,1,0.1,1.4,0.2h6.8c0.4-0.1,0.9-0.2,1.4-0.2
		C-134.6,66.2-134.4,67-134.3,68.1z"/>
	<path d="M-131.4,77.7c-0.8-0.5-1.4-1.3-1.9-2.2c-0.4-1-0.6-2.1-0.6-3.3c0-1.3,0.2-2.4,0.7-3.4c0.4-0.9,1.1-1.7,1.9-2.2
		c0.8-0.5,1.8-0.8,2.8-0.8c1.1,0,2.1,0.3,2.9,0.8c0.8,0.5,1.4,1.3,1.9,2.2c0.4,0.9,0.7,2.1,0.7,3.3c0,1.3-0.2,2.4-0.7,3.4
		s-1.1,1.7-1.9,2.2c-0.8,0.5-1.8,0.8-2.8,0.8C-129.6,78.5-130.6,78.2-131.4,77.7z M-127,76.1c0.4-0.7,0.6-2.1,0.6-4
		c0-1.8-0.2-3.1-0.6-3.9c-0.4-0.7-0.9-1.1-1.6-1.1c-0.6,0-1.2,0.4-1.6,1.1c-0.4,0.7-0.6,2.1-0.6,4c0,1.8,0.2,3.1,0.6,3.9
		s0.9,1.1,1.6,1.1C-127.9,77.2-127.4,76.8-127,76.1z"/>
</g>
<g>
	<path d="M-55.4,149.8c-1.2-0.7-2-1.8-2.6-3.1c-0.6-1.4-0.9-2.9-0.9-4.7c0-1.9,0.3-3.5,0.9-4.8s1.5-2.4,2.7-3.1
		c1.2-0.7,2.5-1.1,4-1.1c1.6,0,3,0.4,4.1,1.1c1.2,0.7,2.1,1.8,2.7,3.1c0.6,1.4,0.9,2.9,0.9,4.7c0,1.9-0.3,3.5-1,4.8
		s-1.5,2.4-2.7,3.1c-1.2,0.7-2.5,1.1-4.1,1.1C-52.9,150.9-54.3,150.6-55.4,149.8z M-49.1,147.5c0.6-1,0.9-2.9,0.9-5.7
		c0-2.6-0.3-4.5-0.8-5.5c-0.5-1-1.3-1.6-2.2-1.6c-0.9,0-1.7,0.5-2.2,1.6c-0.6,1-0.9,2.9-0.9,5.7c0,2.6,0.3,4.5,0.8,5.5
		c0.5,1.1,1.3,1.6,2.2,1.6C-50.4,149.1-49.7,148.6-49.1,147.5z"/>
	<path d="M-33.5,140.7c0.2-0.3,0.3-0.8,0.3-1.5c0.4,0,0.8,0.1,1.2,0.1c0.4,0.1,0.7,0.2,1,0.4v4.6c-0.2,0.2-0.6,0.3-1,0.4
		c-0.4,0.1-0.8,0.1-1.2,0.1c0-0.7-0.1-1.2-0.3-1.5c-0.2-0.3-0.5-0.4-1-0.4h-2.1v4.4c0,0.5,0.1,0.9,0.3,1.1s0.7,0.3,1.3,0.3h2
		c0,0.8-0.1,1.3-0.4,1.7h-8.4c-0.2-0.2-0.3-0.4-0.4-0.7c-0.1-0.3-0.1-0.6-0.1-0.9c0.7,0,1.1-0.1,1.3-0.3c0.2-0.2,0.3-0.5,0.3-1
		v-11.7c0-0.4-0.1-0.8-0.4-1c-0.3-0.2-0.7-0.3-1.2-0.3c0-0.6,0.2-1.1,0.6-1.6h9.5c0.6-0.3,1.3-0.4,1.9-0.4c0.2,0.4,0.4,1,0.6,1.8
		s0.3,1.5,0.3,1.9c-0.2,0.2-0.5,0.4-0.9,0.6c-0.4,0.2-0.8,0.3-1.2,0.4c-0.2-0.6-0.5-1.1-1-1.6c-0.5-0.4-1.1-0.6-1.8-0.6h-2.2v5.8h2
		C-34.1,141.1-33.7,141-33.5,140.7z"/>
	<path d="M-19.5,140.7c0.2-0.3,0.3-0.8,0.3-1.5c0.4,0,0.8,0.1,1.2,0.1c0.4,0.1,0.7,0.2,1,0.4v4.6c-0.2,0.2-0.6,0.3-1,0.4
		c-0.4,0.1-0.8,0.1-1.2,0.1c0-0.7-0.1-1.2-0.3-1.5c-0.2-0.3-0.5-0.4-1-0.4h-2.1v4.4c0,0.5,0.1,0.9,0.3,1.1s0.7,0.3,1.3,0.3h2
		c0,0.8-0.1,1.3-0.4,1.7h-8.4c-0.2-0.2-0.3-0.4-0.4-0.7c-0.1-0.3-0.1-0.6-0.1-0.9c0.7,0,1.1-0.1,1.3-0.3c0.2-0.2,0.3-0.5,0.3-1
		v-11.7c0-0.4-0.1-0.8-0.4-1c-0.3-0.2-0.7-0.3-1.2-0.3c0-0.6,0.2-1.1,0.6-1.6h9.5c0.6-0.3,1.3-0.4,1.9-0.4c0.2,0.4,0.4,1,0.6,1.8
		s0.3,1.5,0.3,1.9c-0.2,0.2-0.5,0.4-0.9,0.6c-0.4,0.2-0.8,0.3-1.2,0.4c-0.2-0.6-0.5-1.1-1-1.6c-0.5-0.4-1.1-0.6-1.8-0.6h-2.2v5.8h2
		C-20,141.1-19.7,141-19.5,140.7z"/>
</g>
<rect x="-5" y="128" class="st1" width="63" height="6"/>
<g>
	<path d="M-121.7,133.9c0.6,1.7,1,3.4,1,5.3c0,3.6-1.3,6.6-3.9,9.1c-2.6,2.5-6.8,3.8-12.6,3.8c-2.2,0-5-0.3-8.6-0.8
		c-4-0.5-7.2-0.8-9.9-0.8c-4.7,0-8.6,0.7-11.8,2l0.1-0.1l-0.2,0.1l-3.1-2.4c0.6-3.4,1.8-6.6,3.4-9.6c1.7-2.9,3.4-5.5,5.4-7.8
		c1.9-2.3,4.5-5,7.7-8.2c3.1-3.1,5.6-5.8,7.4-7.9c1.8-2.1,3.3-4.5,4.5-7.1c1.2-2.6,1.8-5.4,1.8-8.4c0-3.6-0.9-6.4-2.6-8.2
		c-1.7-1.8-4-2.7-6.9-2.7c-3.7,0-6.6,1.4-8.6,4.2c1.7,0.4,3,1.4,4,2.8c1,1.4,1.5,2.9,1.5,4.5c0,2.3-0.9,4.2-2.7,5.6
		c-1.8,1.5-3.9,2.2-6.3,2.2c-2.5,0-4.6-0.9-6.4-2.6c-1.8-1.8-2.7-4.1-2.7-7.1c0-2.9,1-5.6,3-8.1c2-2.5,4.8-4.5,8.5-6
		c3.7-1.5,7.9-2.2,12.6-2.2c7,0,12.6,1.6,17.1,4.9c4.4,3.3,6.6,8.1,6.6,14.3c0,4-0.9,7.6-2.8,10.6c-1.9,3.1-4.2,5.7-6.9,7.8
		c-2.7,2.1-6.4,4.6-10.9,7.4c-4,2.5-7.2,4.7-9.6,6.5c-2.4,1.8-4.3,3.8-5.8,6c2-0.8,4.3-1.5,7-2.2c2.7-0.6,5.1-0.9,7.4-0.9h5.1
		c3.1,0,5.9-0.7,8.3-2.2c2.4-1.4,3.9-3.4,4.6-6h2.7C-123.1,131-122.3,132.3-121.7,133.9z"/>
	<path d="M-76.5,112.1c3.3,1.8,5.9,4.2,7.7,7.2c1.8,3.1,2.7,6.6,2.7,10.5c0,4-1.1,7.7-3.2,11.1c-2.2,3.4-5.3,6.2-9.5,8.2
		c-4.2,2.1-9.1,3.1-14.9,3.1c-4.4,0-8.3-0.6-11.7-1.8c-3.4-1.2-6-2.8-7.9-4.9c-1.9-2.1-2.8-4.4-2.8-7.1c0-2.6,0.8-4.7,2.3-6.2
		c1.6-1.5,3.5-2.3,5.9-2.3c2.2,0,4.1,0.7,5.5,2c1.4,1.3,2.2,3,2.2,5.1c0,1.2-0.3,2.3-1,3.2c-0.6,0.9-1.7,1.8-3.1,2.6
		c2,0.9,4.4,1.3,7.1,1.3c4.2,0,7.5-1.3,9.9-3.8c2.4-2.5,3.6-5.7,3.6-9.4c0-4.3-1.2-7.6-3.7-9.8c-2.5-2.2-5.9-3.3-10.3-3.3
		c-1.9,0-3.8,0.2-5.7,0.6c-2,0.4-3.7,0.9-5.1,1.5l-3.7-4.3l3.3-31h21c3.6,0,6.5-0.2,8.9-0.7c2.4-0.4,4.3-1.2,5.8-2.2h2.2
		c0.8,0.6,1.5,1.6,2,3c0.5,1.3,0.8,2.8,0.8,4.3c0,2.8-1,5-3,6.5c-2,1.5-4.5,2.3-7.6,2.3c-2.1,0-4.1-0.3-5.9-0.8
		c-1.8-0.5-3.9-1.3-6.3-2.3c-3.4-1.5-6.3-2.3-8.5-2.6l-2.3,20.3c4.7-2.1,9.1-3.2,13.2-3.2C-83.8,109.4-79.8,110.3-76.5,112.1z"/>
</g>
</svg>
