<?xml version="1.0" encoding="iso-8859-1"?>
<!-- Generator: Adobe Illustrator 23.0.3, SVG Export Plug-In . SVG Version: 6.00 Build 0)  -->
<svg version="1.1" id="Layer_1" xmlns="http://www.w3.org/2000/svg" xmlns:xlink="http://www.w3.org/1999/xlink" x="0px" y="0px"
	 width="305px" height="119px" viewBox="0 0 305 119" enable-background="new 0 0 305 119" xml:space="preserve">
<symbol  id="GCC" viewBox="-131.293 -46.69 262.586 93.379">
	<g>
		<path d="M-45.62-39.534c-3.588,2.069-6.348,4.944-8.28,8.625c-1.932,3.68-2.898,7.889-2.898,12.627
			c0,5.52,0.954,10.188,2.863,14.007c1.908,3.818,4.565,6.693,7.97,8.625c3.403,1.932,7.336,2.898,11.799,2.898
			c2.898,0,5.681-0.507,8.349-1.518c0.69,0.321,1.69,0.644,3.001,0.966c1.311,0.321,2.334,0.505,3.07,0.552
			c1.334-3.405,2.001-8.602,2.001-15.594h-6.693c-0.46,2.943-1.599,5.22-3.416,6.831C-29.67,0.094-31.843,0.9-34.373,0.9
			c-3.036,0-5.417-1.3-7.142-3.899c-1.725-2.599-2.587-7.096-2.587-13.489c0-7.084,0.851-12.099,2.553-15.042
			c1.701-2.944,4.3-4.416,7.797-4.416c1.287,0,2.369,0.138,3.243,0.414c0.873,0.276,1.609,0.735,2.208,1.38v7.866
			c0,1.195-0.518,2.058-1.553,2.587c-1.035,0.528-2.656,0.793-4.864,0.793c0,0.828,0.161,1.794,0.483,2.898
			c0.321,1.104,0.712,1.908,1.173,2.415h14.904c1.794,0,3.036-0.529,3.726-1.587c0.69-1.059,1.035-2.07,1.035-3.036
			c0-0.46-0.115-0.875-0.345-1.242c-1.656,0-2.944-0.184-3.864-0.552v-7.935c0-1.473,0.252-2.508,0.759-3.104
			c0.321-0.322,0.483-0.736,0.483-1.242c0-0.828-0.759-1.749-2.277-2.76c-1.518-1.013-3.553-1.863-6.106-2.554
			c-2.553-0.69-5.302-1.034-8.246-1.034C-37.822-42.639-42.031-41.605-45.62-39.534z"/>
		<path d="M17.791-8.898c-0.414,3.082-1.254,5.543-2.519,7.383c-1.266,1.839-2.887,2.76-4.864,2.76
			c-2.807,0-5.037-1.323-6.693-3.967C2.059-5.369,1.23-9.45,1.23-14.97c0-6.67,1.287-11.547,3.864-14.628
			c2.576-3.083,5.911-4.623,10.005-4.623c1.977,0,3.726,0.368,5.244,1.104c1.518,0.735,2.599,1.609,3.243,2.622
			c0.552-0.414,1.011-1.035,1.38-1.863c0.368-0.828,0.552-1.587,0.552-2.277c0-1.15-0.586-2.346-1.76-3.587
			c-1.173-1.242-2.863-2.289-5.071-3.141c-2.208-0.85-4.761-1.275-7.659-1.275c-4.048,0-7.74,0.943-11.074,2.828
			c-3.336,1.886-5.992,4.737-7.97,8.556c-1.978,3.818-2.967,8.441-2.967,13.869c0,5.289,0.897,9.786,2.691,13.489
			c1.794,3.703,4.312,6.486,7.556,8.349c3.243,1.863,7.026,2.794,11.35,2.794c1.012,0,2.162-0.138,3.45-0.414
			c1.287-0.276,2.415-0.645,3.381-1.104c0.69,0.321,1.702,0.644,3.036,0.966c1.333,0.321,2.369,0.505,3.105,0.552
			c1.333-3.267,2.001-8.648,2.001-16.146H17.791z"/>
		<path d="M70.229-8.898c-0.414,3.082-1.254,5.543-2.519,7.383c-1.266,1.839-2.887,2.76-4.864,2.76
			c-2.807,0-5.037-1.323-6.693-3.967c-1.656-2.646-2.484-6.728-2.484-12.248c0-6.67,1.287-11.547,3.864-14.628
			c2.576-3.083,5.911-4.623,10.005-4.623c1.977,0,3.726,0.368,5.244,1.104c1.518,0.735,2.599,1.609,3.243,2.622
			c0.552-0.414,1.011-1.035,1.38-1.863c0.368-0.828,0.552-1.587,0.552-2.277c0-1.15-0.586-2.346-1.76-3.587
			c-1.173-1.242-2.863-2.289-5.071-3.141c-2.208-0.85-4.761-1.275-7.659-1.275c-4.048,0-7.74,0.943-11.074,2.828
			c-3.336,1.886-5.992,4.737-7.97,8.556c-1.978,3.818-2.967,8.441-2.967,13.869c0,5.289,0.897,9.786,2.691,13.489
			c1.794,3.703,4.312,6.486,7.556,8.349c3.243,1.863,7.026,2.794,11.35,2.794c1.012,0,2.162-0.138,3.45-0.414
			c1.287-0.276,2.415-0.645,3.381-1.104c0.69,0.321,1.702,0.644,3.036,0.966c1.333,0.321,2.369,0.505,3.105,0.552
			c1.333-3.267,2.001-8.648,2.001-16.146H70.229z"/>
		<path d="M85.409-37.775c-3.036,3.197-4.554,7.763-4.554,13.697c0,4.231,0.725,7.842,2.173,10.833
			c1.449,2.989,3.485,5.244,6.107,6.762c2.622,1.518,5.658,2.277,9.108,2.277c3.312,0,6.22-0.724,8.728-2.173
			c2.507-1.449,4.461-3.577,5.865-6.382c1.402-2.807,2.104-6.21,2.104-10.212c0-4.187-0.725-7.752-2.173-10.695
			c-1.449-2.944-3.484-5.165-6.107-6.659c-2.621-1.494-5.658-2.242-9.107-2.242C92.492-42.57,88.444-40.973,85.409-37.775z
			 M101.692-34.842c0.782,1.839,1.173,5.244,1.173,10.211c0,4.186-0.207,7.406-0.621,9.66c-0.414,2.253-0.989,3.795-1.725,4.623
			c-0.736,0.828-1.68,1.242-2.829,1.242c-1.611,0-2.818-0.92-3.623-2.76c-0.805-1.84-1.208-5.291-1.208-10.35
			c0-4.14,0.207-7.326,0.621-9.557c0.414-2.231,1-3.76,1.76-4.588c0.759-0.828,1.713-1.242,2.863-1.242
			C99.714-37.603,100.91-36.683,101.692-34.842z"/>
		<path d="M129.361-40.673c-1.288-1.265-2.967-1.897-5.037-1.897c-2.116,0-3.818,0.633-5.105,1.897
			c-1.289,1.265-1.932,2.909-1.932,4.934c0,2.07,0.643,3.726,1.932,4.968c1.287,1.242,2.989,1.863,5.105,1.863
			c2.07,0,3.749-0.621,5.037-1.863c1.287-1.242,1.932-2.898,1.932-4.968C131.293-37.764,130.648-39.408,129.361-40.673z"/>
	</g>
	<polyline fill="none" stroke="#fff" stroke-width="5" stroke-miterlimit="10" points="-107.293,-44.69 -25.067,43.31 
		8.957,16.727 22.189,30.477 47.707,8.477 	"/>
	<polygon points="-79.293,-18.69 -62.293,-20.69 -89.293,13.31 -69.293,9.31 -92.293,45.31 -115.293,9.31 -95.293,13.31 
		-122.293,-20.69 -105.293,-18.69 -131.293,-46.69 -92.293,-46.69 -53.293,-46.69 	"/>
</symbol>
<use xlink:href="#GCC"  width="262.586" height="93.379" x="-131.293" y="-46.69" transform="matrix(1 0 0 -1 146.293 58.3105)" overflow="visible"/>
</svg>
