<?xml version="1.0" encoding="iso-8859-1"?>
<!-- Generator: Adobe Illustrator 23.0.3, SVG Export Plug-In . SVG Version: 6.00 Build 0)  -->
<svg version="1.1" id="Layer_1" xmlns="http://www.w3.org/2000/svg" xmlns:xlink="http://www.w3.org/1999/xlink" x="0px" y="0px"
	 width="161px" height="94px" viewBox="0 0 161 94" enable-background="new 0 0 161 94" xml:space="preserve">
<g id="_x36_0_x25_">
	<g>
		<path fill="#ED5537" d="M42.113,50.005c-3.135-1.583-6.667-2.375-10.593-2.375c-2.914,0-5.716,0.444-8.407,1.33
			c-2.693,0.888-4.861,2.09-6.508,3.61c-0.064-0.19-0.095-0.537-0.095-1.045c0-8.17,1.171-14.075,3.515-17.718
			c2.342-3.641,5.415-5.462,9.215-5.462c1.646,0,3.182,0.238,4.607,0.712c1.425,0.475,2.518,1.188,3.277,2.138
			c-1.078,0.57-1.947,1.363-2.612,2.375c-0.665,1.014-0.998,2.028-0.998,3.04c0,2.028,0.76,3.705,2.28,5.035s3.42,1.995,5.7,1.995
			c2.47,0,4.417-0.807,5.842-2.422c1.425-1.615,2.138-3.657,2.138-6.127c0-4.306-1.917-7.615-5.748-9.927
			c-3.833-2.312-8.661-3.468-14.487-3.468c-5.51,0-10.466,1.283-14.868,3.848C9.97,28.107,6.471,32.05,3.875,37.37
			C1.277,42.69-0.02,49.245-0.02,57.035c0,7.094,1.093,13.079,3.278,17.955c2.185,4.878,5.24,8.535,9.167,10.973
			c3.926,2.439,8.55,3.657,13.87,3.657c5.002,0,9.484-0.997,13.443-2.992c3.957-1.995,7.03-4.703,9.215-8.123s3.277-7.22,3.277-11.4
			c0-3.926-0.902-7.363-2.708-10.308C47.718,53.853,45.248,51.589,42.113,50.005z M33.562,79.407
			c-1.869,2.059-4.196,3.087-6.982,3.087c-2.978,0-5.415-1.425-7.315-4.275s-2.85-7.505-2.85-13.965c0-1.71,0.031-3.007,0.095-3.895
			c0.822-1.646,2.057-2.881,3.705-3.705c1.646-0.822,3.578-1.235,5.795-1.235c3.04,0,5.525,1.14,7.458,3.42
			c1.931,2.28,2.897,5.795,2.897,10.545C36.365,74.009,35.43,77.35,33.562,79.407z"/>
		<path fill="#ED5537" d="M82.57,21.6c-8.678,0-15.39,2.74-20.14,8.217c-4.75,5.479-7.125,14.33-7.125,26.552
			c0,22.294,9.025,33.44,27.075,33.44c18.24,0,27.36-11.115,27.36-33.345c0-12.286-2.344-21.168-7.03-26.647
			C98.022,24.34,91.31,21.6,82.57,21.6z M91.405,72.995c-0.888,3.928-2.09,6.603-3.61,8.028c-1.52,1.425-3.325,2.137-5.415,2.137
			c-2.028,0-3.785-0.696-5.272-2.09c-1.489-1.392-2.676-4.052-3.562-7.98c-0.888-3.926-1.33-9.436-1.33-16.53
			c0-7.79,0.458-13.759,1.377-17.908c0.917-4.147,2.121-6.918,3.61-8.312c1.487-1.392,3.278-2.09,5.368-2.09s3.862,0.698,5.32,2.09
			c1.457,1.394,2.627,4.132,3.515,8.217c0.886,4.085,1.33,9.992,1.33,17.718C92.735,63.495,92.291,69.069,91.405,72.995z"/>
		<path fill="#ED5537" d="M125.732,64.104c0.651,0.286,1.264,0.445,1.836,0.477L146.553,25.8c-0.477-0.413-1.034-0.763-1.67-1.049
			c-0.636-0.286-1.257-0.445-1.86-0.477l-18.938,38.733C124.531,63.452,125.08,63.817,125.732,64.104z"/>
		<path fill="#ED5537" d="M122.56,47.98c2.83,0,5.04-0.866,6.63-2.6c1.59-1.733,2.385-4.444,2.385-8.133
			c0-3.688-0.787-6.399-2.361-8.133c-1.574-1.733-3.776-2.6-6.607-2.6c-2.831,0-5.041,0.867-6.63,2.6
			c-1.59,1.734-2.385,4.445-2.385,8.133c0,3.658,0.787,6.361,2.361,8.109C117.527,47.106,119.729,47.98,122.56,47.98z
			 M120.842,30.951c0.413-1.081,1.002-1.622,1.765-1.622s1.351,0.541,1.765,1.622c0.413,1.081,0.62,3.148,0.62,6.201
			c0,3.053-0.215,5.16-0.644,6.321c-0.429,1.161-1.026,1.741-1.789,1.741c-0.732,0-1.304-0.572-1.717-1.717
			c-0.414-1.145-0.62-3.227-0.62-6.249C120.222,34.132,120.429,32.033,120.842,30.951z"/>
		<path fill="#ED5537" d="M139.017,51.32c0,3.657,0.779,6.361,2.337,8.109c1.558,1.749,3.768,2.624,6.63,2.624
			c2.83,0,5.04-0.875,6.63-2.624c1.59-1.749,2.385-4.452,2.385-8.109c0-3.657-0.787-6.36-2.361-8.109
			c-1.574-1.748-3.792-2.623-6.654-2.623c-2.831,0-5.032,0.867-6.607,2.6C139.804,44.92,139.017,47.631,139.017,51.32z
			 M146.219,44.999c0.413-1.097,1.002-1.646,1.765-1.646s1.351,0.549,1.765,1.646c0.413,1.097,0.62,3.172,0.62,6.225
			c0,3.053-0.215,5.152-0.644,6.296c-0.429,1.145-1.01,1.717-1.741,1.717c-0.763,0-1.352-0.564-1.765-1.693
			c-0.414-1.128-0.62-3.22-0.62-6.273C145.599,48.188,145.806,46.096,146.219,44.999z"/>
		<path fill="#ED5537" d="M3.229,6.182v5.621c0,1.56,0.43,2.753,1.292,3.579c0.861,0.826,2.048,1.24,3.561,1.24
			c1.501,0,2.633-0.428,3.395-1.283c0.762-0.855,1.143-2.092,1.143-3.71V6.182c0-0.314,0.096-0.538,0.288-0.672
			c0.192-0.134,0.509-0.201,0.951-0.201c0-0.442-0.128-0.809-0.384-1.1H9.636c-0.256,0.268-0.384,0.634-0.384,1.1
			c0.442,0,0.759,0.067,0.952,0.201c0.192,0.134,0.288,0.358,0.288,0.672v6.267c0,0.745-0.166,1.347-0.497,1.807
			c-0.332,0.46-0.864,0.689-1.597,0.689c-0.733,0-1.277-0.253-1.632-0.759c-0.355-0.506-0.532-1.178-0.532-2.016V6.182
			c0-0.314,0.081-0.538,0.244-0.672c0.163-0.134,0.442-0.201,0.838-0.201c0-0.442-0.134-0.809-0.401-1.1H2.548
			C2.281,4.5,2.147,4.867,2.147,5.309c0.396,0,0.675,0.067,0.838,0.201C3.148,5.644,3.229,5.868,3.229,6.182z"/>
		<path fill="#ED5537" d="M15.161,15.076c-0.169,0.134-0.451,0.201-0.847,0.201c0,0.209,0.035,0.413,0.105,0.611
			c0.07,0.198,0.168,0.367,0.297,0.506h5.08c0.116-0.14,0.209-0.308,0.279-0.506c0.07-0.198,0.105-0.401,0.105-0.611
			c-0.535,0-0.934-0.044-1.196-0.131c-0.262-0.087-0.445-0.247-0.55-0.48c-0.105-0.232-0.157-0.582-0.157-1.047v-1.536h0.733
			c1.129,0,2.083-0.174,2.863-0.524c0.78-0.349,1.362-0.829,1.746-1.44c0.384-0.611,0.576-1.306,0.576-2.086
			c0-1.327-0.384-2.316-1.152-2.968c-0.768-0.651-2.048-0.977-3.84-0.977c-0.21,0-0.652,0.012-1.327,0.035
			c-1.339,0.058-2.397,0.087-3.177,0.087c-0.256,0.338-0.384,0.704-0.384,1.1c0.396,0,0.678,0.067,0.847,0.201
			c0.169,0.134,0.253,0.364,0.253,0.69v8.205C15.414,14.718,15.329,14.942,15.161,15.076z M18.277,5.536
			c0.175-0.046,0.39-0.07,0.646-0.07c0.803,0,1.376,0.233,1.719,0.698c0.343,0.466,0.515,1.071,0.515,1.816
			c0,0.78-0.163,1.426-0.489,1.938c-0.326,0.512-0.972,0.768-1.938,0.768c-0.198,0-0.349-0.011-0.454-0.035V5.536z"/>
		<path fill="#ED5537" d="M31.508,5.589h0.384v8.746c0,0.628-0.658,0.943-1.973,0.943c0,0.209,0.035,0.413,0.105,0.611
			c0.07,0.198,0.163,0.367,0.279,0.506h5.935c0.128-0.14,0.227-0.308,0.297-0.506c0.07-0.198,0.105-0.401,0.105-0.611
			c-0.628,0-1.094-0.076-1.396-0.227c-0.303-0.151-0.454-0.39-0.454-0.716V5.589h0.297c0.43,0,0.779,0.093,1.047,0.279
			c0.268,0.186,0.48,0.53,0.637,1.03c0.157,0.5,0.271,1.216,0.34,2.147c0.256,0,0.544-0.018,0.864-0.053
			c0.32-0.035,0.555-0.081,0.707-0.139c0-0.686-0.052-1.565-0.157-2.636C38.421,5.146,38.276,4.407,38.09,4
			c-0.512,0-0.989,0.07-1.431,0.209H29.85C29.431,4.07,28.954,4,28.419,4c-0.186,0.407-0.332,1.146-0.436,2.217
			c-0.105,1.071-0.157,1.95-0.157,2.636c0.232,0.093,0.756,0.157,1.571,0.192C29.582,6.741,30.287,5.589,31.508,5.589z"/>
		<path fill="#ED5537" d="M41.415,15.844c0.809,0.518,1.772,0.777,2.889,0.777c1.082,0,2.031-0.25,2.846-0.751
			c0.814-0.5,1.446-1.225,1.894-2.173c0.448-0.948,0.672-2.074,0.672-3.378c0-1.268-0.218-2.377-0.655-3.325
			c-0.436-0.948-1.062-1.685-1.876-2.208C46.37,4.262,45.404,4,44.287,4c-1.082,0-2.028,0.25-2.837,0.751
			c-0.809,0.5-1.435,1.225-1.877,2.173c-0.442,0.949-0.663,2.08-0.663,3.395c0,1.257,0.215,2.362,0.646,3.317
			C39.986,14.59,40.606,15.327,41.415,15.844z M42.777,6.391c0.401-0.733,0.922-1.1,1.562-1.1c0.675,0,1.198,0.367,1.571,1.1
			c0.372,0.733,0.559,2.019,0.559,3.858c0,1.932-0.201,3.264-0.602,3.998c-0.401,0.733-0.923,1.1-1.562,1.1
			c-0.663,0-1.184-0.369-1.562-1.109c-0.378-0.739-0.567-2.027-0.567-3.867C42.174,8.451,42.375,7.125,42.777,6.391z"/>
		<path fill="#ED5537" d="M125.619,72.219c-1.161-0.746-2.538-1.119-4.13-1.119c-1.543,0-2.89,0.357-4.043,1.07
			c-1.153,0.713-2.044,1.746-2.674,3.097c-0.63,1.352-0.945,2.965-0.945,4.839c0,1.791,0.307,3.367,0.92,4.727
			c0.613,1.36,1.497,2.409,2.65,3.147c1.152,0.739,2.525,1.107,4.117,1.107c1.542,0,2.894-0.356,4.055-1.07
			c1.16-0.713,2.061-1.745,2.699-3.097c0.638-1.352,0.958-2.956,0.958-4.814c0-1.807-0.311-3.388-0.933-4.739
			C127.671,74.015,126.779,72.965,125.619,72.219z M123.741,85.703c-0.572,1.044-1.315,1.567-2.227,1.567
			c-0.945,0-1.688-0.526-2.227-1.58c-0.539-1.053-0.809-2.889-0.809-5.51c0-2.736,0.286-4.627,0.858-5.672
			c0.572-1.045,1.314-1.567,2.227-1.567c0.962,0,1.708,0.522,2.239,1.567c0.531,1.045,0.796,2.878,0.796,5.498
			C124.599,82.759,124.313,84.658,123.741,85.703z"/>
		<path fill="#ED5537" d="M142.561,71c-0.614,0-1.244,0.141-1.891,0.423h-9.503c-0.381,0.432-0.572,0.954-0.572,1.567
			c0.547,0,0.95,0.096,1.207,0.286c0.257,0.191,0.385,0.51,0.385,0.958v11.693c0,0.464-0.116,0.788-0.348,0.97
			c-0.232,0.182-0.68,0.274-1.344,0.274c0,0.299,0.05,0.589,0.149,0.871c0.1,0.283,0.24,0.522,0.423,0.722h8.384
			c0.298-0.348,0.448-0.912,0.448-1.692h-1.99c-0.647,0-1.082-0.116-1.306-0.348c-0.224-0.232-0.336-0.605-0.336-1.12v-4.428h2.065
			c0.464,0,0.792,0.145,0.983,0.435c0.19,0.29,0.286,0.775,0.286,1.455c0.381,0,0.771-0.05,1.169-0.149
			c0.398-0.1,0.722-0.232,0.97-0.398v-4.603c-0.249-0.166-0.572-0.298-0.97-0.398c-0.398-0.1-0.788-0.149-1.169-0.149
			c0,0.68-0.099,1.174-0.298,1.48c-0.199,0.307-0.531,0.46-0.995,0.46h-2.04v-5.772h2.189c0.763,0,1.372,0.203,1.829,0.609
			c0.456,0.407,0.784,0.925,0.983,1.555c0.348-0.066,0.738-0.195,1.169-0.385c0.431-0.191,0.746-0.377,0.945-0.56
			c0-0.448-0.087-1.09-0.261-1.928C142.946,71.991,142.759,71.382,142.561,71z"/>
		<path fill="#ED5537" d="M152.487,73.538c0.763,0,1.372,0.203,1.829,0.609c0.456,0.407,0.784,0.925,0.983,1.555
			c0.348-0.066,0.738-0.195,1.169-0.385c0.431-0.191,0.746-0.377,0.945-0.56c0-0.448-0.087-1.09-0.261-1.928
			c-0.174-0.837-0.361-1.447-0.56-1.829c-0.614,0-1.244,0.141-1.891,0.423h-9.503c-0.381,0.432-0.572,0.954-0.572,1.567
			c0.547,0,0.95,0.096,1.207,0.286c0.257,0.191,0.385,0.51,0.385,0.958v11.693c0,0.464-0.116,0.788-0.348,0.97
			c-0.232,0.182-0.68,0.274-1.344,0.274c0,0.299,0.05,0.589,0.149,0.871c0.1,0.283,0.24,0.522,0.423,0.722h8.384
			c0.298-0.348,0.448-0.912,0.448-1.692h-1.99c-0.647,0-1.082-0.116-1.306-0.348c-0.224-0.232-0.336-0.605-0.336-1.12v-4.428h2.065
			c0.464,0,0.792,0.145,0.983,0.435c0.19,0.29,0.286,0.775,0.286,1.455c0.381,0,0.771-0.05,1.169-0.149
			c0.398-0.1,0.722-0.232,0.97-0.398v-4.603c-0.249-0.166-0.572-0.298-0.97-0.398s-0.788-0.149-1.169-0.149
			c0,0.68-0.099,1.174-0.298,1.48c-0.199,0.307-0.531,0.46-0.995,0.46h-2.04v-5.772H152.487z"/>
	</g>
</g>
<g>
	<path d="M-65.887-68.995c3.135,1.584,5.605,3.848,7.41,6.792c1.805,2.945,2.708,6.381,2.708,10.308c0,4.18-1.092,7.98-3.277,11.4
		s-5.258,6.127-9.215,8.123c-3.959,1.995-8.44,2.992-13.443,2.992c-5.32,0-9.944-1.218-13.87-3.657
		c-3.928-2.438-6.983-6.095-9.167-10.973c-2.185-4.876-3.278-10.861-3.278-17.955c0-7.79,1.297-14.345,3.895-19.665
		c2.596-5.32,6.095-9.262,10.498-11.827c4.401-2.565,9.357-3.848,14.868-3.848c5.826,0,10.655,1.156,14.487,3.468
		c3.831,2.312,5.748,5.621,5.748,9.927c0,2.47-0.712,4.513-2.138,6.127c-1.425,1.615-3.373,2.422-5.842,2.422
		c-2.28,0-4.18-0.665-5.7-1.995s-2.28-3.007-2.28-5.035c0-1.012,0.333-2.026,0.998-3.04c0.665-1.012,1.535-1.805,2.612-2.375
		c-0.76-0.95-1.853-1.663-3.277-2.138c-1.425-0.475-2.961-0.712-4.607-0.712c-3.8,0-6.873,1.821-9.215,5.462
		c-2.344,3.643-3.515,9.548-3.515,17.718c0,0.508,0.031,0.855,0.095,1.045c1.646-1.52,3.815-2.722,6.508-3.61
		c2.691-0.886,5.494-1.33,8.407-1.33C-72.554-71.37-69.022-70.578-65.887-68.995z M-74.438-39.593
		c1.867-2.057,2.803-5.398,2.803-10.022c0-4.75-0.966-8.265-2.897-10.545c-1.933-2.28-4.417-3.42-7.458-3.42
		c-2.218,0-4.149,0.413-5.795,1.235c-1.647,0.824-2.882,2.059-3.705,3.705c-0.064,0.888-0.095,2.185-0.095,3.895
		c0,6.46,0.95,11.115,2.85,13.965s4.337,4.275,7.315,4.275C-78.634-36.505-76.306-37.534-74.438-39.593z"/>
	<path d="M-52.695-62.63c0-12.222,2.375-21.073,7.125-26.552c4.75-5.478,11.462-8.217,20.14-8.217c8.74,0,15.452,2.74,20.14,8.217
		c4.686,5.479,7.03,14.361,7.03,26.647c0,22.23-9.12,33.345-27.36,33.345C-43.67-29.19-52.695-40.336-52.695-62.63z M-20.205-37.978
		c1.52-1.425,2.722-4.1,3.61-8.028c0.886-3.926,1.33-9.5,1.33-16.72c0-7.726-0.444-13.632-1.33-17.718
		c-0.888-4.085-2.059-6.823-3.515-8.217c-1.458-1.392-3.23-2.09-5.32-2.09s-3.88,0.698-5.368,2.09
		c-1.489,1.394-2.692,4.165-3.61,8.312c-0.919,4.149-1.377,10.118-1.377,17.908c0,7.094,0.442,12.604,1.33,16.53
		c0.886,3.928,2.074,6.588,3.562,7.98c1.487,1.394,3.245,2.09,5.272,2.09C-23.53-35.84-21.725-36.553-20.205-37.978z"/>
</g>
<g>
	<path d="M7.953-73.643c-1.574-1.749-2.361-4.452-2.361-8.109c0-3.688,0.795-6.399,2.385-8.133c1.59-1.733,3.8-2.6,6.631-2.6
		c2.83,0,5.032,0.867,6.606,2.6c1.574,1.734,2.361,4.445,2.361,8.133c0,3.689-0.795,6.4-2.385,8.133c-1.59,1.734-3.8,2.6-6.631,2.6
		C11.729-71.019,9.527-71.894,7.953-73.643z M16.348-75.527c0.429-1.161,0.644-3.268,0.644-6.321c0-3.053-0.207-5.119-0.62-6.201
		c-0.414-1.081-1.002-1.622-1.765-1.622s-1.352,0.541-1.765,1.622c-0.414,1.081-0.62,3.18-0.62,6.296
		c0,3.022,0.206,5.104,0.62,6.249c0.413,1.145,0.985,1.717,1.717,1.717C15.323-73.786,15.919-74.366,16.348-75.527z M17.732-54.896
		c-0.652-0.286-1.201-0.652-1.646-1.097l18.938-38.733c0.604,0.032,1.224,0.191,1.86,0.477c0.636,0.286,1.193,0.636,1.67,1.049
		L19.568-54.419C18.996-54.451,18.383-54.61,17.732-54.896z M33.354-59.571c-1.559-1.749-2.337-4.452-2.337-8.109
		c0-3.689,0.787-6.4,2.361-8.133c1.574-1.733,3.776-2.6,6.607-2.6c2.862,0,5.08,0.875,6.654,2.623C48.213-74.04,49-71.337,49-67.68
		c0,3.657-0.795,6.361-2.385,8.109c-1.591,1.749-3.8,2.624-6.631,2.624C37.122-56.947,34.912-57.822,33.354-59.571z M41.725-61.479
		c0.429-1.145,0.644-3.244,0.644-6.296c0-3.053-0.207-5.128-0.62-6.225c-0.414-1.097-1.002-1.646-1.765-1.646
		s-1.352,0.549-1.765,1.646c-0.414,1.097-0.62,3.189-0.62,6.273c0,3.053,0.206,5.144,0.62,6.273
		c0.413,1.129,1.002,1.693,1.765,1.693C40.716-59.762,41.296-60.334,41.725-61.479z"/>
</g>
<g>
	<path d="M-95.379-107.372c0,1.618-0.381,2.854-1.143,3.71c-0.763,0.855-1.894,1.283-3.395,1.283c-1.513,0-2.7-0.413-3.561-1.24
		c-0.861-0.826-1.292-2.019-1.292-3.579v-5.621c0-0.314-0.082-0.538-0.244-0.672c-0.163-0.134-0.442-0.201-0.838-0.201
		c0-0.442,0.134-0.809,0.401-1.1h4.364c0.268,0.291,0.401,0.657,0.401,1.1c-0.396,0-0.675,0.067-0.838,0.201
		c-0.163,0.134-0.244,0.358-0.244,0.672v5.988c0,0.838,0.177,1.51,0.532,2.016c0.355,0.506,0.899,0.759,1.632,0.759
		c0.733,0,1.265-0.23,1.597-0.689c0.332-0.46,0.498-1.062,0.498-1.807v-6.267c0-0.314-0.096-0.538-0.288-0.672
		c-0.192-0.134-0.509-0.201-0.952-0.201c0-0.465,0.128-0.832,0.384-1.1h3.841c0.256,0.291,0.384,0.657,0.384,1.1
		c-0.442,0-0.759,0.067-0.951,0.201c-0.192,0.134-0.288,0.358-0.288,0.672V-107.372z"/>
	<path d="M-84.958-113.935c0.768,0.652,1.152,1.641,1.152,2.968c0,0.78-0.192,1.475-0.576,2.086
		c-0.384,0.611-0.966,1.091-1.746,1.44c-0.78,0.349-1.734,0.524-2.863,0.524h-0.733v1.536c0,0.466,0.053,0.815,0.157,1.047
		c0.105,0.233,0.288,0.393,0.55,0.48c0.262,0.087,0.66,0.131,1.196,0.131c0,0.209-0.035,0.413-0.105,0.611
		c-0.07,0.198-0.163,0.367-0.279,0.506h-5.08c-0.128-0.14-0.227-0.308-0.297-0.506c-0.07-0.198-0.105-0.401-0.105-0.611
		c0.396,0,0.678-0.067,0.847-0.201c0.169-0.134,0.253-0.358,0.253-0.672v-8.205c0-0.326-0.084-0.555-0.253-0.69
		c-0.169-0.134-0.451-0.201-0.847-0.201c0-0.396,0.128-0.762,0.384-1.1c0.78,0,1.839-0.029,3.177-0.087
		c0.675-0.023,1.117-0.035,1.327-0.035C-87.006-114.913-85.726-114.587-84.958-113.935z M-87.358-112.836
		c-0.343-0.465-0.916-0.698-1.719-0.698c-0.256,0-0.471,0.023-0.646,0.07v5.115c0.105,0.024,0.256,0.035,0.454,0.035
		c0.966,0,1.612-0.256,1.938-0.768c0.326-0.512,0.489-1.158,0.489-1.938C-86.843-111.765-87.015-112.37-87.358-112.836z"/>
	<path d="M-69.474-112.783c0.105,1.071,0.157,1.95,0.157,2.636c-0.151,0.058-0.387,0.105-0.707,0.14
		c-0.32,0.035-0.608,0.053-0.864,0.053c-0.07-0.931-0.184-1.647-0.34-2.147c-0.157-0.5-0.37-0.844-0.637-1.03
		c-0.268-0.186-0.617-0.279-1.047-0.279h-0.297v8.746c0,0.326,0.151,0.565,0.454,0.716c0.302,0.151,0.768,0.227,1.396,0.227
		c0,0.209-0.035,0.413-0.105,0.611c-0.07,0.198-0.169,0.367-0.297,0.506h-5.935c-0.116-0.14-0.209-0.308-0.279-0.506
		c-0.07-0.198-0.105-0.401-0.105-0.611c1.315,0,1.973-0.314,1.973-0.943v-8.746h-0.384c-1.222,0-1.926,1.152-2.112,3.456
		c-0.815-0.035-1.339-0.099-1.571-0.192c0-0.686,0.052-1.565,0.157-2.636c0.105-1.071,0.25-1.809,0.436-2.217
		c0.535,0,1.013,0.07,1.432,0.209h6.808C-70.9-114.93-70.423-115-69.91-115C-69.724-114.593-69.579-113.854-69.474-112.783z"/>
	<path d="M-66.585-103.156c-0.809-0.518-1.429-1.254-1.859-2.209c-0.431-0.954-0.646-2.06-0.646-3.317
		c0-1.315,0.221-2.447,0.663-3.395c0.442-0.948,1.067-1.673,1.877-2.173c0.809-0.5,1.754-0.751,2.837-0.751
		c1.117,0,2.083,0.262,2.898,0.785c0.814,0.524,1.44,1.26,1.876,2.209s0.655,2.057,0.655,3.325c0,1.304-0.224,2.43-0.672,3.378
		c-0.448,0.948-1.08,1.673-1.894,2.173c-0.815,0.5-1.763,0.751-2.846,0.751C-64.813-102.379-65.776-102.638-66.585-103.156z
		 M-62.133-104.753c0.401-0.733,0.602-2.066,0.602-3.998c0-1.839-0.186-3.125-0.559-3.858c-0.372-0.733-0.896-1.1-1.571-1.1
		c-0.64,0-1.161,0.367-1.562,1.1c-0.401,0.733-0.602,2.06-0.602,3.98c0,1.839,0.189,3.128,0.567,3.867
		c0.378,0.739,0.899,1.109,1.562,1.109C-63.056-103.653-62.535-104.02-62.133-104.753z"/>
</g>
<g>
	<path d="M9.397-31.021c-1.153-0.738-2.036-1.786-2.65-3.147c-0.614-1.36-0.92-2.935-0.92-4.727c0-1.874,0.315-3.487,0.945-4.839
		c0.63-1.352,1.521-2.384,2.674-3.097c1.152-0.713,2.5-1.07,4.043-1.07c1.592,0,2.968,0.373,4.13,1.119
		c1.16,0.747,2.052,1.796,2.674,3.147c0.622,1.352,0.933,2.932,0.933,4.739c0,1.858-0.319,3.462-0.958,4.814
		c-0.639,1.352-1.539,2.384-2.699,3.097c-1.161,0.713-2.513,1.07-4.055,1.07C11.922-29.914,10.549-30.283,9.397-31.021z
		 M15.741-33.297c0.572-1.045,0.858-2.944,0.858-5.697c0-2.62-0.266-4.453-0.796-5.498c-0.531-1.045-1.277-1.567-2.239-1.567
		c-0.912,0-1.654,0.522-2.227,1.567c-0.572,1.045-0.858,2.936-0.858,5.672c0,2.621,0.27,4.458,0.809,5.51
		c0.539,1.054,1.281,1.58,2.227,1.58C14.426-31.73,15.168-32.253,15.741-33.297z"/>
	<path d="M31.301-40.151c0.199-0.307,0.298-0.8,0.298-1.48c0.381,0,0.771,0.05,1.169,0.149c0.398,0.1,0.722,0.232,0.97,0.398v4.603
		c-0.249,0.166-0.572,0.298-0.97,0.398c-0.398,0.099-0.788,0.149-1.169,0.149c0-0.68-0.096-1.165-0.286-1.455
		c-0.191-0.29-0.519-0.435-0.983-0.435h-2.065v4.428c0,0.514,0.112,0.888,0.336,1.12c0.224,0.232,0.659,0.348,1.306,0.348h1.99
		c0,0.78-0.149,1.344-0.448,1.692h-8.384c-0.183-0.199-0.324-0.439-0.423-0.722c-0.1-0.282-0.149-0.572-0.149-0.871
		c0.663,0,1.111-0.092,1.344-0.274c0.232-0.182,0.348-0.506,0.348-0.97v-11.693c0-0.448-0.128-0.767-0.385-0.958
		c-0.257-0.191-0.659-0.286-1.207-0.286c0-0.613,0.191-1.136,0.572-1.567h9.503C33.317-47.859,33.947-48,34.561-48
		c0.199,0.382,0.385,0.991,0.56,1.829s0.261,1.48,0.261,1.928c-0.199,0.183-0.514,0.369-0.945,0.56
		c-0.432,0.191-0.821,0.319-1.169,0.385c-0.199-0.63-0.527-1.148-0.983-1.555c-0.456-0.406-1.066-0.609-1.829-0.609h-2.189v5.772
		h2.04C30.771-39.691,31.103-39.844,31.301-40.151z"/>
	<path d="M45.333-40.151c0.199-0.307,0.298-0.8,0.298-1.48c0.381,0,0.771,0.05,1.169,0.149c0.398,0.1,0.722,0.232,0.97,0.398v4.603
		c-0.249,0.166-0.572,0.298-0.97,0.398c-0.398,0.099-0.788,0.149-1.169,0.149c0-0.68-0.096-1.165-0.286-1.455
		c-0.191-0.29-0.519-0.435-0.983-0.435h-2.065v4.428c0,0.514,0.112,0.888,0.336,1.12c0.224,0.232,0.659,0.348,1.306,0.348h1.99
		c0,0.78-0.149,1.344-0.448,1.692h-8.384c-0.183-0.199-0.324-0.439-0.423-0.722c-0.1-0.282-0.149-0.572-0.149-0.871
		c0.663,0,1.111-0.092,1.344-0.274c0.232-0.182,0.348-0.506,0.348-0.97v-11.693c0-0.448-0.128-0.767-0.385-0.958
		s-0.659-0.286-1.207-0.286c0-0.613,0.191-1.136,0.572-1.567h9.503C47.348-47.859,47.978-48,48.592-48
		c0.199,0.382,0.385,0.991,0.56,1.829s0.261,1.48,0.261,1.928c-0.199,0.183-0.514,0.369-0.945,0.56
		c-0.432,0.191-0.821,0.319-1.169,0.385c-0.199-0.63-0.527-1.148-0.983-1.555c-0.456-0.406-1.066-0.609-1.829-0.609h-2.189v5.772
		h2.04C44.802-39.691,45.134-39.844,45.333-40.151z"/>
</g>
<rect x="-5" y="128" fill="#FFB688" width="63" height="6"/>
</svg>
