<svg xmlns="http://www.w3.org/2000/svg" width="262.586" height="93.379" viewBox="0 0 262.586 93.379">
  <title>GCCLogo</title>
  <g>
    <path d="M116.673,145.845a21.062,21.062,0,0,1-8.279-8.625,26.748,26.748,0,0,1-2.9-12.627,31.093,31.093,0,0,1,2.863-14.007,19.756,19.756,0,0,1,7.97-8.625,24.725,24.725,0,0,1,20.148-1.38,17.189,17.189,0,0,1,3-.966,18.706,18.706,0,0,1,3.07-.552q2,5.108,2,15.594h-6.693a11.048,11.048,0,0,0-3.415-6.831,9.5,9.5,0,0,0-6.521-2.415,8.129,8.129,0,0,0-7.141,3.9q-2.587,3.9-2.588,13.489,0,10.626,2.554,15.042a8.411,8.411,0,0,0,7.8,4.416,10.912,10.912,0,0,0,3.243-.414,5.036,5.036,0,0,0,2.208-1.38V132.6a2.7,2.7,0,0,0-1.553-2.588,11.241,11.241,0,0,0-4.864-.793,10.51,10.51,0,0,1,.483-2.9,6.192,6.192,0,0,1,1.172-2.415h14.905q2.691,0,3.725,1.587a5.593,5.593,0,0,1,1.035,3.036,2.3,2.3,0,0,1-.345,1.242,10.744,10.744,0,0,0-3.863.552v7.935a4.86,4.86,0,0,0,.758,3.1,1.686,1.686,0,0,1,.484,1.243q0,1.242-2.278,2.759a20.887,20.887,0,0,1-6.106,2.554,31.51,31.51,0,0,1-8.246,1.034A24.831,24.831,0,0,1,116.673,145.845Z" transform="translate(-31 -59.621)"/>
    <path d="M180.083,115.209a16.917,16.917,0,0,0-2.518-7.383,5.7,5.7,0,0,0-4.864-2.76,7.584,7.584,0,0,0-6.694,3.967q-2.483,3.969-2.484,12.248,0,10,3.864,14.628a12.434,12.434,0,0,0,10.006,4.623,11.874,11.874,0,0,0,5.243-1.1,7.67,7.67,0,0,0,3.243-2.622,4.586,4.586,0,0,1,1.38,1.863,5.664,5.664,0,0,1,.553,2.277,5.382,5.382,0,0,1-1.76,3.587,13.6,13.6,0,0,1-5.072,3.141,21.257,21.257,0,0,1-7.659,1.275,22.112,22.112,0,0,1-11.074-2.828,20.134,20.134,0,0,1-7.97-8.556,29.842,29.842,0,0,1-2.966-13.869A30.746,30.746,0,0,1,154,110.207a18.728,18.728,0,0,1,7.556-8.35,22.4,22.4,0,0,1,11.35-2.794,16.662,16.662,0,0,1,3.45.414,15.4,15.4,0,0,1,3.381,1.1,17.087,17.087,0,0,1,3.036-.966,19.421,19.421,0,0,1,3.1-.552q2,4.9,2,16.146Z" transform="translate(-31 -59.621)"/>
    <path d="M232.522,115.209A16.917,16.917,0,0,0,230,107.826a5.7,5.7,0,0,0-4.864-2.76,7.582,7.582,0,0,0-6.693,3.967q-2.484,3.969-2.484,12.248,0,10,3.864,14.628a12.43,12.43,0,0,0,10,4.623,11.882,11.882,0,0,0,5.244-1.1,7.676,7.676,0,0,0,3.243-2.622,4.6,4.6,0,0,1,1.38,1.863,5.678,5.678,0,0,1,.552,2.277,5.377,5.377,0,0,1-1.76,3.587,13.6,13.6,0,0,1-5.071,3.141,21.257,21.257,0,0,1-7.659,1.275,22.107,22.107,0,0,1-11.074-2.828,20.128,20.128,0,0,1-7.97-8.556,29.842,29.842,0,0,1-2.967-13.869,30.732,30.732,0,0,1,2.691-13.489,18.723,18.723,0,0,1,7.556-8.35,22.39,22.39,0,0,1,11.35-2.794,16.677,16.677,0,0,1,3.45.414,15.421,15.421,0,0,1,3.381,1.1,17.059,17.059,0,0,1,3.036-.966,19.4,19.4,0,0,1,3.105-.552q2,4.9,2,16.146Z" transform="translate(-31 -59.621)"/>
    <path d="M247.7,144.086q-4.554-4.8-4.555-13.7a24.656,24.656,0,0,1,2.174-10.833,15.24,15.24,0,0,1,6.107-6.762,17.844,17.844,0,0,1,9.108-2.277,17.13,17.13,0,0,1,8.728,2.173,14.8,14.8,0,0,1,5.865,6.383,22.658,22.658,0,0,1,2.1,10.212,24.041,24.041,0,0,1-2.172,10.695,15.093,15.093,0,0,1-6.108,6.659,18.073,18.073,0,0,1-9.107,2.242Q252.255,148.881,247.7,144.086Zm16.283-2.934q1.174-2.758,1.173-10.211a57,57,0,0,0-.621-9.66,9.957,9.957,0,0,0-1.725-4.623,3.614,3.614,0,0,0-2.829-1.242q-2.415,0-3.622,2.76t-1.208,10.35a55.817,55.817,0,0,0,.621,9.557,9.606,9.606,0,0,0,1.76,4.588,3.719,3.719,0,0,0,2.863,1.242Q262.812,143.913,263.985,141.152Z" transform="translate(-31 -59.621)"/>
    <path d="M291.654,146.983a6.88,6.88,0,0,1-5.037,1.9,6.969,6.969,0,0,1-5.105-1.9,7.308,7.308,0,0,1,0-9.9,7.042,7.042,0,0,1,5.105-1.863,6.951,6.951,0,0,1,5.037,1.863,7.308,7.308,0,0,1,0,9.9Z" transform="translate(-31 -59.621)"/>
  </g>
  <polyline points="24 91.379 106.226 3.379 140.25 29.962 153.482 16.212 179 38.212" fill="none" stroke="#fff" stroke-miterlimit="10" stroke-width="5"/>
  <g>
    <polyline points="39 1.379 16 37.379 36 33.379 9 67.379 26 65.379 0 93.379 39 93.379 39 4.379"/>
    <polyline points="39 1.379 62 37.379 42 33.379 69 67.379 52 65.379 78 93.379 39 93.379 39 4.379"/>
  </g>
</svg>
