<?xml version="1.0" encoding="utf-8"?>
<!-- Generator: Adobe Illustrator 23.0.3, SVG Export Plug-In . SVG Version: 6.00 Build 0)  -->
<svg version="1.1" id="Layer_1" xmlns="http://www.w3.org/2000/svg" xmlns:xlink="http://www.w3.org/1999/xlink" x="0px" y="0px"
	 width="161px" height="94px" viewBox="0 0 161 94" style="enable-background:new 0 0 161 94;" xml:space="preserve">
<style type="text/css">
	.st0{fill:#ED5537;}
	.st1{fill:#FFB688;}
</style>
<g id="_x36_0_x25_">
	<g>
		<path class="st0" d="M-151.1,56.2c-3.1-1.6-6.7-2.4-10.6-2.4c-2.9,0-5.7,0.4-8.4,1.3c-2.7,0.9-4.9,2.1-6.5,3.6
			c-0.1-0.2-0.1-0.5-0.1-1c0-8.2,1.2-14.1,3.5-17.7c2.3-3.6,5.4-5.5,9.2-5.5c1.6,0,3.2,0.2,4.6,0.7c1.4,0.5,2.5,1.2,3.3,2.1
			c-1.1,0.6-1.9,1.4-2.6,2.4c-0.7,1-1,2-1,3c0,2,0.8,3.7,2.3,5c1.5,1.3,3.4,2,5.7,2c2.5,0,4.4-0.8,5.8-2.4c1.4-1.6,2.1-3.7,2.1-6.1
			c0-4.3-1.9-7.6-5.7-9.9c-3.8-2.3-8.7-3.5-14.5-3.5c-5.5,0-10.5,1.3-14.9,3.8c-4.4,2.6-7.9,6.5-10.5,11.8
			c-2.6,5.3-3.9,11.9-3.9,19.7c0,7.1,1.1,13.1,3.3,18c2.2,4.9,5.2,8.5,9.2,11c3.9,2.4,8.6,3.7,13.9,3.7c5,0,9.5-1,13.4-3
			c4-2,7-4.7,9.2-8.1c2.2-3.4,3.3-7.2,3.3-11.4c0-3.9-0.9-7.4-2.7-10.3C-145.5,60.1-148,57.8-151.1,56.2z M-159.6,85.6
			c-1.9,2.1-4.2,3.1-7,3.1c-3,0-5.4-1.4-7.3-4.3c-1.9-2.8-2.8-7.5-2.8-14c0-1.7,0-3,0.1-3.9c0.8-1.6,2.1-2.9,3.7-3.7
			c1.6-0.8,3.6-1.2,5.8-1.2c3,0,5.5,1.1,7.5,3.4c1.9,2.3,2.9,5.8,2.9,10.5C-156.8,80.2-157.8,83.5-159.6,85.6z"/>
		<path class="st0" d="M-110.6,27.8c-8.7,0-15.4,2.7-20.1,8.2c-4.8,5.5-7.1,14.3-7.1,26.6c0,22.3,9,33.4,27.1,33.4
			c18.2,0,27.4-11.1,27.4-33.3c0-12.3-2.3-21.2-7-26.6C-95.2,30.5-101.9,27.8-110.6,27.8z M-101.8,79.2c-0.9,3.9-2.1,6.6-3.6,8
			c-1.5,1.4-3.3,2.1-5.4,2.1c-2,0-3.8-0.7-5.3-2.1c-1.5-1.4-2.7-4.1-3.6-8c-0.9-3.9-1.3-9.4-1.3-16.5c0-7.8,0.5-13.8,1.4-17.9
			c0.9-4.1,2.1-6.9,3.6-8.3c1.5-1.4,3.3-2.1,5.4-2.1s3.9,0.7,5.3,2.1c1.5,1.4,2.6,4.1,3.5,8.2c0.9,4.1,1.3,10,1.3,17.7
			C-100.5,69.7-100.9,75.3-101.8,79.2z"/>
		<path class="st0" d="M-67.5,70.3c0.7,0.3,1.3,0.4,1.8,0.5l19-38.8c-0.5-0.4-1-0.8-1.7-1s-1.3-0.4-1.9-0.5l-18.9,38.7
			C-68.7,69.6-68.1,70-67.5,70.3z"/>
		<path class="st0" d="M-70.6,54.2c2.8,0,5-0.9,6.6-2.6c1.6-1.7,2.4-4.4,2.4-8.1c0-3.7-0.8-6.4-2.4-8.1c-1.6-1.7-3.8-2.6-6.6-2.6
			s-5,0.9-6.6,2.6c-1.6,1.7-2.4,4.4-2.4,8.1c0,3.7,0.8,6.4,2.4,8.1C-75.7,53.3-73.5,54.2-70.6,54.2z M-72.4,37.1
			c0.4-1.1,1-1.6,1.8-1.6s1.4,0.5,1.8,1.6c0.4,1.1,0.6,3.1,0.6,6.2s-0.2,5.2-0.6,6.3c-0.4,1.2-1,1.7-1.8,1.7c-0.7,0-1.3-0.6-1.7-1.7
			c-0.4-1.1-0.6-3.2-0.6-6.2C-73,40.3-72.8,38.2-72.4,37.1z"/>
		<path class="st0" d="M-54.2,57.5c0,3.7,0.8,6.4,2.3,8.1c1.6,1.7,3.8,2.6,6.6,2.6c2.8,0,5-0.9,6.6-2.6c1.6-1.7,2.4-4.5,2.4-8.1
			c0-3.7-0.8-6.4-2.4-8.1c-1.6-1.7-3.8-2.6-6.7-2.6c-2.8,0-5,0.9-6.6,2.6C-53.4,51.1-54.2,53.8-54.2,57.5z M-47,51.2
			c0.4-1.1,1-1.6,1.8-1.6s1.4,0.5,1.8,1.6c0.4,1.1,0.6,3.2,0.6,6.2s-0.2,5.2-0.6,6.3c-0.4,1.1-1,1.7-1.7,1.7c-0.8,0-1.4-0.6-1.8-1.7
			c-0.4-1.1-0.6-3.2-0.6-6.3C-47.6,54.4-47.4,52.3-47,51.2z"/>
		<path class="st0" d="M-190,12.4V18c0,1.6,0.4,2.8,1.3,3.6c0.9,0.8,2,1.2,3.6,1.2c1.5,0,2.6-0.4,3.4-1.3c0.8-0.9,1.1-2.1,1.1-3.7
			v-5.4c0-0.3,0.1-0.5,0.3-0.7s0.5-0.2,1-0.2c0-0.4-0.1-0.8-0.4-1.1h-3.8c-0.3,0.3-0.4,0.6-0.4,1.1c0.4,0,0.8,0.1,1,0.2
			c0.2,0.1,0.3,0.4,0.3,0.7v6.3c0,0.7-0.2,1.3-0.5,1.8c-0.3,0.5-0.9,0.7-1.6,0.7s-1.3-0.3-1.6-0.8s-0.5-1.2-0.5-2v-6
			c0-0.3,0.1-0.5,0.2-0.7c0.2-0.1,0.4-0.2,0.8-0.2c0-0.4-0.1-0.8-0.4-1.1h-4.4c-0.3,0.3-0.4,0.7-0.4,1.1c0.4,0,0.7,0.1,0.8,0.2
			C-190.1,11.8-190,12.1-190,12.4z"/>
		<path class="st0" d="M-178,21.3c-0.2,0.1-0.5,0.2-0.8,0.2c0,0.2,0,0.4,0.1,0.6c0.1,0.2,0.2,0.4,0.3,0.5h5.1
			c0.1-0.1,0.2-0.3,0.3-0.5c0.1-0.2,0.1-0.4,0.1-0.6c-0.5,0-0.9,0-1.2-0.1c-0.3-0.1-0.4-0.2-0.6-0.5c-0.1-0.2-0.2-0.6-0.2-1v-1.5
			h0.7c1.1,0,2.1-0.2,2.9-0.5c0.8-0.3,1.4-0.8,1.7-1.4s0.6-1.3,0.6-2.1c0-1.3-0.4-2.3-1.2-3c-0.8-0.7-2-1-3.8-1c-0.2,0-0.7,0-1.3,0
			c-1.3,0.1-2.4,0.1-3.2,0.1c-0.3,0.3-0.4,0.7-0.4,1.1c0.4,0,0.7,0.1,0.8,0.2c0.2,0.1,0.3,0.4,0.3,0.7v8.2
			C-177.8,20.9-177.9,21.1-178,21.3z M-174.9,11.7c0.2,0,0.4-0.1,0.6-0.1c0.8,0,1.4,0.2,1.7,0.7c0.3,0.5,0.5,1.1,0.5,1.8
			c0,0.8-0.2,1.4-0.5,1.9c-0.3,0.5-1,0.8-1.9,0.8c-0.2,0-0.3,0-0.5,0L-174.9,11.7L-174.9,11.7z"/>
		<path class="st0" d="M-161.7,11.8h0.4v8.7c0,0.6-0.7,0.9-2,0.9c0,0.2,0,0.4,0.1,0.6c0.1,0.2,0.2,0.4,0.3,0.5h5.9
			c0.1-0.1,0.2-0.3,0.3-0.5c0.1-0.2,0.1-0.4,0.1-0.6c-0.6,0-1.1-0.1-1.4-0.2c-0.3-0.2-0.5-0.4-0.5-0.7v-8.7h0.3c0.4,0,0.8,0.1,1,0.3
			c0.3,0.2,0.5,0.5,0.6,1s0.3,1.2,0.3,2.1c0.3,0,0.5,0,0.9-0.1c0.3,0,0.6-0.1,0.7-0.1c0-0.7-0.1-1.6-0.2-2.6
			c-0.1-1.1-0.2-1.8-0.4-2.2c-0.5,0-1,0.1-1.4,0.2h-6.8c-0.4-0.1-0.9-0.2-1.4-0.2c-0.2,0.4-0.3,1.1-0.4,2.2
			c-0.1,1.1-0.2,1.9-0.2,2.6c0.2,0.1,0.8,0.2,1.6,0.2C-163.6,12.9-162.9,11.8-161.7,11.8z"/>
		<path class="st0" d="M-151.8,22c0.8,0.5,1.8,0.8,2.9,0.8c1.1,0,2-0.2,2.8-0.8c0.8-0.5,1.4-1.2,1.9-2.2c0.4-0.9,0.7-2.1,0.7-3.4
			c0-1.3-0.2-2.4-0.7-3.3c-0.4-0.9-1.1-1.7-1.9-2.2c-0.8-0.5-1.8-0.8-2.9-0.8c-1.1,0-2,0.2-2.8,0.8c-0.8,0.5-1.4,1.2-1.9,2.2
			c-0.4,0.9-0.7,2.1-0.7,3.4c0,1.3,0.2,2.4,0.6,3.3C-153.2,20.8-152.6,21.5-151.8,22z M-150.4,12.6c0.4-0.7,0.9-1.1,1.6-1.1
			c0.7,0,1.2,0.4,1.6,1.1c0.4,0.7,0.6,2,0.6,3.9c0,1.9-0.2,3.3-0.6,4c-0.4,0.7-0.9,1.1-1.6,1.1c-0.7,0-1.2-0.4-1.6-1.1
			c-0.4-0.7-0.6-2-0.6-3.9C-151,14.6-150.8,13.3-150.4,12.6z"/>
		<path class="st0" d="M-67.6,78.4c-1.2-0.7-2.5-1.1-4.1-1.1c-1.5,0-2.9,0.4-4,1.1s-2,1.7-2.7,3.1c-0.6,1.4-0.9,3-0.9,4.8
			c0,1.8,0.3,3.4,0.9,4.7s1.5,2.4,2.7,3.1c1.2,0.7,2.5,1.1,4.1,1.1c1.5,0,2.9-0.4,4.1-1.1c1.2-0.7,2.1-1.7,2.7-3.1
			c0.6-1.4,1-3,1-4.8c0-1.8-0.3-3.4-0.9-4.7C-65.5,80.2-66.4,79.2-67.6,78.4z M-69.5,91.9c-0.6,1-1.3,1.6-2.2,1.6
			c-0.9,0-1.7-0.5-2.2-1.6c-0.5-1.1-0.8-2.9-0.8-5.5c0-2.7,0.3-4.6,0.9-5.7s1.3-1.6,2.2-1.6c1,0,1.7,0.5,2.2,1.6s0.8,2.9,0.8,5.5
			C-68.6,89-68.9,90.9-69.5,91.9z"/>
		<path class="st0" d="M-50.6,77.2c-0.6,0-1.2,0.1-1.9,0.4H-62c-0.4,0.4-0.6,1-0.6,1.6c0.5,0,0.9,0.1,1.2,0.3c0.3,0.2,0.4,0.5,0.4,1
			v11.7c0,0.5-0.1,0.8-0.3,1c-0.2,0.2-0.7,0.3-1.3,0.3c0,0.3,0.1,0.6,0.1,0.9c0.1,0.3,0.2,0.5,0.4,0.7h8.4c0.3-0.3,0.4-0.9,0.4-1.7
			h-2c-0.6,0-1.1-0.1-1.3-0.3s-0.3-0.6-0.3-1.1v-4.4h2.1c0.5,0,0.8,0.1,1,0.4c0.2,0.3,0.3,0.8,0.3,1.5c0.4,0,0.8-0.1,1.2-0.1
			c0.4-0.1,0.7-0.2,1-0.4v-4.6c-0.2-0.2-0.6-0.3-1-0.4c-0.4-0.1-0.8-0.1-1.2-0.1c0,0.7-0.1,1.2-0.3,1.5c-0.2,0.3-0.5,0.5-1,0.5h-2
			v-5.8h2.2c0.8,0,1.4,0.2,1.8,0.6c0.5,0.4,0.8,0.9,1,1.6c0.3-0.1,0.7-0.2,1.2-0.4c0.4-0.2,0.7-0.4,0.9-0.6c0-0.4-0.1-1.1-0.3-1.9
			C-50.3,78.2-50.4,77.6-50.6,77.2z"/>
		<path class="st0" d="M-40.7,79.7c0.8,0,1.4,0.2,1.8,0.6c0.5,0.4,0.8,0.9,1,1.6c0.3-0.1,0.7-0.2,1.2-0.4c0.4-0.2,0.7-0.4,0.9-0.6
			c0-0.4-0.1-1.1-0.3-1.9c-0.2-0.8-0.4-1.4-0.6-1.8c-0.6,0-1.2,0.1-1.9,0.4H-48c-0.4,0.4-0.6,1-0.6,1.6c0.5,0,0.9,0.1,1.2,0.3
			c0.3,0.2,0.4,0.5,0.4,1v11.7c0,0.5-0.1,0.8-0.3,1c-0.2,0.2-0.7,0.3-1.3,0.3c0,0.3,0.1,0.6,0.1,0.9c0.1,0.3,0.2,0.5,0.4,0.7h8.4
			c0.3-0.3,0.4-0.9,0.4-1.7h-2c-0.6,0-1.1-0.1-1.3-0.3s-0.3-0.6-0.3-1.1v-4.4h2.1c0.5,0,0.8,0.1,1,0.4c0.2,0.3,0.3,0.8,0.3,1.5
			c0.4,0,0.8-0.1,1.2-0.1c0.4-0.1,0.7-0.2,1-0.4v-4.6c-0.2-0.2-0.6-0.3-1-0.4s-0.8-0.1-1.2-0.1c0,0.7-0.1,1.2-0.3,1.5
			c-0.2,0.3-0.5,0.5-1,0.5h-2v-5.8L-40.7,79.7L-40.7,79.7z"/>
	</g>
</g>
<g>
	<path d="M-65.9-69c3.1,1.6,5.6,3.8,7.4,6.8c1.8,2.9,2.7,6.4,2.7,10.3c0,4.2-1.1,8-3.3,11.4s-5.3,6.1-9.2,8.1c-4,2-8.4,3-13.4,3
		c-5.3,0-9.9-1.2-13.9-3.7c-3.9-2.4-7-6.1-9.2-11c-2.2-4.9-3.3-10.9-3.3-18c0-7.8,1.3-14.3,3.9-19.7c2.6-5.3,6.1-9.3,10.5-11.8
		c4.4-2.6,9.4-3.8,14.9-3.8c5.8,0,10.7,1.2,14.5,3.5c3.8,2.3,5.7,5.6,5.7,9.9c0,2.5-0.7,4.5-2.1,6.1c-1.4,1.6-3.4,2.4-5.8,2.4
		c-2.3,0-4.2-0.7-5.7-2s-2.3-3-2.3-5c0-1,0.3-2,1-3c0.7-1,1.5-1.8,2.6-2.4c-0.8-0.9-1.9-1.7-3.3-2.1c-1.4-0.5-3-0.7-4.6-0.7
		c-3.8,0-6.9,1.8-9.2,5.5c-2.3,3.6-3.5,9.5-3.5,17.7c0,0.5,0,0.9,0.1,1c1.6-1.5,3.8-2.7,6.5-3.6c2.7-0.9,5.5-1.3,8.4-1.3
		C-72.6-71.4-69-70.6-65.9-69z M-74.4-39.6c1.9-2.1,2.8-5.4,2.8-10c0-4.8-1-8.3-2.9-10.5c-1.9-2.3-4.4-3.4-7.5-3.4
		c-2.2,0-4.1,0.4-5.8,1.2c-1.6,0.8-2.9,2.1-3.7,3.7c-0.1,0.9-0.1,2.2-0.1,3.9c0,6.5,0.9,11.1,2.8,14s4.3,4.3,7.3,4.3
		C-78.6-36.5-76.3-37.5-74.4-39.6z"/>
	<path d="M-52.7-62.6c0-12.2,2.4-21.1,7.1-26.6c4.8-5.5,11.5-8.2,20.1-8.2c8.7,0,15.5,2.7,20.1,8.2c4.7,5.5,7,14.4,7,26.6
		c0,22.2-9.1,33.3-27.4,33.3C-43.7-29.2-52.7-40.3-52.7-62.6z M-20.2-38c1.5-1.4,2.7-4.1,3.6-8c0.9-3.9,1.3-9.5,1.3-16.7
		c0-7.7-0.4-13.6-1.3-17.7c-0.9-4.1-2.1-6.8-3.5-8.2c-1.5-1.4-3.2-2.1-5.3-2.1s-3.9,0.7-5.4,2.1c-1.5,1.4-2.7,4.2-3.6,8.3
		c-0.9,4.1-1.4,10.1-1.4,17.9c0,7.1,0.4,12.6,1.3,16.5c0.9,3.9,2.1,6.6,3.6,8c1.5,1.4,3.2,2.1,5.3,2.1C-23.5-35.8-21.7-36.6-20.2-38
		z"/>
</g>
<g>
	<path d="M8-73.6c-1.6-1.7-2.4-4.5-2.4-8.1c0-3.7,0.8-6.4,2.4-8.1c1.6-1.7,3.8-2.6,6.6-2.6c2.8,0,5,0.9,6.6,2.6
		c1.6,1.7,2.4,4.4,2.4,8.1c0,3.7-0.8,6.4-2.4,8.1c-1.6,1.7-3.8,2.6-6.6,2.6C11.7-71,9.5-71.9,8-73.6z M16.3-75.5
		c0.4-1.2,0.6-3.3,0.6-6.3S16.8-87,16.4-88c-0.4-1.1-1-1.6-1.8-1.6s-1.4,0.5-1.8,1.6c-0.4,1.1-0.6,3.2-0.6,6.3c0,3,0.2,5.1,0.6,6.2
		c0.4,1.1,1,1.7,1.7,1.7C15.3-73.8,15.9-74.4,16.3-75.5z M17.7-54.9c-0.7-0.3-1.2-0.7-1.6-1.1L35-94.7c0.6,0,1.2,0.2,1.9,0.5
		c0.6,0.3,1.2,0.6,1.7,1l-19,38.8C19-54.5,18.4-54.6,17.7-54.9z M33.4-59.6C31.8-61.3,31-64,31-67.7c0-3.7,0.8-6.4,2.4-8.1
		c1.6-1.7,3.8-2.6,6.6-2.6c2.9,0,5.1,0.9,6.7,2.6c1.6,1.8,2.4,4.5,2.4,8.1s-0.8,6.4-2.4,8.1c-1.6,1.7-3.8,2.6-6.6,2.6
		C37.1-56.9,34.9-57.8,33.4-59.6z M41.7-61.5c0.4-1.1,0.6-3.2,0.6-6.3c0-3.1-0.2-5.1-0.6-6.2c-0.4-1.1-1-1.6-1.8-1.6
		s-1.4,0.5-1.8,1.6c-0.4,1.1-0.6,3.2-0.6,6.3c0,3.1,0.2,5.1,0.6,6.3c0.4,1.1,1,1.7,1.8,1.7C40.7-59.8,41.3-60.3,41.7-61.5z"/>
</g>
<g>
	<path d="M-95.4-107.4c0,1.6-0.4,2.9-1.1,3.7c-0.8,0.9-1.9,1.3-3.4,1.3c-1.5,0-2.7-0.4-3.6-1.2c-0.9-0.8-1.3-2-1.3-3.6v-5.6
		c0-0.3-0.1-0.5-0.2-0.7c-0.2-0.1-0.4-0.2-0.8-0.2c0-0.4,0.1-0.8,0.4-1.1h4.4c0.3,0.3,0.4,0.7,0.4,1.1c-0.4,0-0.7,0.1-0.8,0.2
		c-0.2,0.1-0.2,0.4-0.2,0.7v6c0,0.8,0.2,1.5,0.5,2c0.4,0.5,0.9,0.8,1.6,0.8s1.3-0.2,1.6-0.7c0.3-0.5,0.5-1.1,0.5-1.8v-6.3
		c0-0.3-0.1-0.5-0.3-0.7c-0.2-0.1-0.5-0.2-1-0.2c0-0.5,0.1-0.8,0.4-1.1h3.8c0.3,0.3,0.4,0.7,0.4,1.1c-0.4,0-0.8,0.1-1,0.2
		c-0.2,0.1-0.3,0.4-0.3,0.7L-95.4-107.4L-95.4-107.4z"/>
	<path d="M-85-113.9c0.8,0.7,1.2,1.6,1.2,3c0,0.8-0.2,1.5-0.6,2.1c-0.4,0.6-1,1.1-1.7,1.4s-1.7,0.5-2.9,0.5h-0.7v1.5
		c0,0.5,0.1,0.8,0.2,1c0.1,0.2,0.3,0.4,0.6,0.5c0.3,0.1,0.7,0.1,1.2,0.1c0,0.2,0,0.4-0.1,0.6s-0.2,0.4-0.3,0.5h-5.1
		c-0.1-0.1-0.2-0.3-0.3-0.5s-0.1-0.4-0.1-0.6c0.4,0,0.7-0.1,0.8-0.2c0.2-0.1,0.3-0.4,0.3-0.7v-8.2c0-0.3-0.1-0.6-0.3-0.7
		c-0.2-0.1-0.5-0.2-0.8-0.2c0-0.4,0.1-0.8,0.4-1.1c0.8,0,1.8,0,3.2-0.1c0.7,0,1.1,0,1.3,0C-87-114.9-85.7-114.6-85-113.9z
		 M-87.4-112.8c-0.3-0.5-0.9-0.7-1.7-0.7c-0.3,0-0.5,0-0.6,0.1v5.1c0.1,0,0.3,0,0.5,0c1,0,1.6-0.3,1.9-0.8c0.3-0.5,0.5-1.2,0.5-1.9
		C-86.8-111.8-87-112.4-87.4-112.8z"/>
	<path d="M-69.5-112.8c0.1,1.1,0.2,1.9,0.2,2.6c-0.2,0.1-0.4,0.1-0.7,0.1c-0.3,0-0.6,0.1-0.9,0.1c-0.1-0.9-0.2-1.6-0.3-2.1
		c-0.2-0.5-0.4-0.8-0.6-1c-0.3-0.2-0.6-0.3-1-0.3h-0.3v8.7c0,0.3,0.2,0.6,0.5,0.7c0.3,0.2,0.8,0.2,1.4,0.2c0,0.2,0,0.4-0.1,0.6
		s-0.2,0.4-0.3,0.5h-5.9c-0.1-0.1-0.2-0.3-0.3-0.5s-0.1-0.4-0.1-0.6c1.3,0,2-0.3,2-0.9v-8.7h-0.4c-1.2,0-1.9,1.2-2.1,3.5
		c-0.8,0-1.3-0.1-1.6-0.2c0-0.7,0.1-1.6,0.2-2.6c0.1-1.1,0.2-1.8,0.4-2.2c0.5,0,1,0.1,1.4,0.2h6.8c0.4-0.1,0.9-0.2,1.4-0.2
		C-69.7-114.6-69.6-113.9-69.5-112.8z"/>
	<path d="M-66.6-103.2c-0.8-0.5-1.4-1.3-1.9-2.2c-0.4-1-0.6-2.1-0.6-3.3c0-1.3,0.2-2.4,0.7-3.4s1.1-1.7,1.9-2.2
		c0.8-0.5,1.8-0.8,2.8-0.8c1.1,0,2.1,0.3,2.9,0.8c0.8,0.5,1.4,1.3,1.9,2.2s0.7,2.1,0.7,3.3c0,1.3-0.2,2.4-0.7,3.4s-1.1,1.7-1.9,2.2
		c-0.8,0.5-1.8,0.8-2.8,0.8C-64.8-102.4-65.8-102.6-66.6-103.2z M-62.1-104.8c0.4-0.7,0.6-2.1,0.6-4c0-1.8-0.2-3.1-0.6-3.9
		c-0.4-0.7-0.9-1.1-1.6-1.1c-0.6,0-1.2,0.4-1.6,1.1c-0.4,0.7-0.6,2.1-0.6,4c0,1.8,0.2,3.1,0.6,3.9s0.9,1.1,1.6,1.1
		C-63.1-103.7-62.5-104-62.1-104.8z"/>
</g>
<g>
	<path d="M9.4-31c-1.2-0.7-2-1.8-2.7-3.1c-0.6-1.4-0.9-2.9-0.9-4.7c0-1.9,0.3-3.5,0.9-4.8s1.5-2.4,2.7-3.1c1.2-0.7,2.5-1.1,4-1.1
		c1.6,0,3,0.4,4.1,1.1c1.2,0.7,2.1,1.8,2.7,3.1c0.6,1.4,0.9,2.9,0.9,4.7c0,1.9-0.3,3.5-1,4.8s-1.5,2.4-2.7,3.1
		c-1.2,0.7-2.5,1.1-4.1,1.1C11.9-29.9,10.5-30.3,9.4-31z M15.7-33.3c0.6-1,0.9-2.9,0.9-5.7c0-2.6-0.3-4.5-0.8-5.5
		c-0.5-1-1.3-1.6-2.2-1.6c-0.9,0-1.7,0.5-2.2,1.6c-0.6,1-0.9,2.9-0.9,5.7c0,2.6,0.3,4.5,0.8,5.5c0.5,1.1,1.3,1.6,2.2,1.6
		C14.4-31.7,15.2-32.3,15.7-33.3z"/>
	<path d="M31.3-40.2c0.2-0.3,0.3-0.8,0.3-1.5c0.4,0,0.8,0,1.2,0.1c0.4,0.1,0.7,0.2,1,0.4v4.6c-0.2,0.2-0.6,0.3-1,0.4
		c-0.4,0.1-0.8,0.1-1.2,0.1c0-0.7-0.1-1.2-0.3-1.5c-0.2-0.3-0.5-0.4-1-0.4h-2.1v4.4c0,0.5,0.1,0.9,0.3,1.1s0.7,0.3,1.3,0.3h2
		c0,0.8-0.1,1.3-0.4,1.7h-8.4c-0.2-0.2-0.3-0.4-0.4-0.7c-0.1-0.3-0.1-0.6-0.1-0.9c0.7,0,1.1-0.1,1.3-0.3c0.2-0.2,0.3-0.5,0.3-1
		v-11.7c0-0.4-0.1-0.8-0.4-1S23.1-46,22.6-46c0-0.6,0.2-1.1,0.6-1.6h9.5c0.6-0.3,1.3-0.4,1.9-0.4c0.2,0.4,0.4,1,0.6,1.8
		s0.3,1.5,0.3,1.9c-0.2,0.2-0.5,0.4-0.9,0.6c-0.4,0.2-0.8,0.3-1.2,0.4c-0.2-0.6-0.5-1.1-1-1.6c-0.5-0.4-1.1-0.6-1.8-0.6h-2.2v5.8h2
		C30.8-39.7,31.1-39.8,31.3-40.2z"/>
	<path d="M45.3-40.2c0.2-0.3,0.3-0.8,0.3-1.5c0.4,0,0.8,0,1.2,0.1c0.4,0.1,0.7,0.2,1,0.4v4.6c-0.2,0.2-0.6,0.3-1,0.4
		c-0.4,0.1-0.8,0.1-1.2,0.1c0-0.7-0.1-1.2-0.3-1.5c-0.2-0.3-0.5-0.4-1-0.4h-2.1v4.4c0,0.5,0.1,0.9,0.3,1.1s0.7,0.3,1.3,0.3h2
		c0,0.8-0.1,1.3-0.4,1.7h-8.4c-0.2-0.2-0.3-0.4-0.4-0.7c-0.1-0.3-0.1-0.6-0.1-0.9c0.7,0,1.1-0.1,1.3-0.3c0.2-0.2,0.3-0.5,0.3-1
		v-11.7c0-0.4-0.1-0.8-0.4-1S37.2-46,36.6-46c0-0.6,0.2-1.1,0.6-1.6h9.5c0.6-0.3,1.3-0.4,1.9-0.4c0.2,0.4,0.4,1,0.6,1.8
		s0.3,1.5,0.3,1.9c-0.2,0.2-0.5,0.4-0.9,0.6c-0.4,0.2-0.8,0.3-1.2,0.4c-0.2-0.6-0.5-1.1-1-1.6c-0.5-0.4-1.1-0.6-1.8-0.6h-2.2v5.8h2
		C44.8-39.7,45.1-39.8,45.3-40.2z"/>
</g>
<rect x="-5" y="128" class="st1" width="63" height="6"/>
<g>
	<g>
		<path class="st0" d="M117.1,45.7c-1.6-1.8-2.4-4.5-2.4-8.3c0-3.8,0.8-6.5,2.4-8.3c1.6-1.8,3.9-2.6,6.7-2.6c2.9,0,5.1,0.9,6.7,2.6
			c1.6,1.8,2.4,4.5,2.4,8.3c0,3.8-0.8,6.5-2.4,8.3c-1.6,1.8-3.9,2.6-6.7,2.6C120.9,48.4,118.7,47.5,117.1,45.7z M125.6,43.8
			c0.4-1.2,0.7-3.3,0.7-6.4s-0.2-5.2-0.6-6.3c-0.4-1.1-1-1.7-1.8-1.7s-1.4,0.6-1.8,1.7c-0.4,1.1-0.6,3.2-0.6,6.4
			c0,3.1,0.2,5.2,0.6,6.4c0.4,1.2,1,1.7,1.7,1.7C124.6,45.6,125.2,45,125.6,43.8z M127,64.8c-0.7-0.3-1.2-0.7-1.7-1.1l19.3-39.4
			c0.6,0,1.2,0.2,1.9,0.5c0.6,0.3,1.2,0.6,1.7,1.1l-19.3,39.5C128.3,65.3,127.7,65.1,127,64.8z M142.9,60c-1.6-1.8-2.4-4.5-2.4-8.3
			c0-3.8,0.8-6.5,2.4-8.3c1.6-1.8,3.8-2.6,6.7-2.6c2.9,0,5.2,0.9,6.8,2.7c1.6,1.8,2.4,4.5,2.4,8.3c0,3.7-0.8,6.5-2.4,8.3
			c-1.6,1.8-3.9,2.7-6.7,2.7C146.7,62.7,144.5,61.8,142.9,60z M151.4,58.1c0.4-1.2,0.7-3.3,0.7-6.4c0-3.1-0.2-5.2-0.6-6.3
			c-0.4-1.1-1-1.7-1.8-1.7c-0.8,0-1.4,0.6-1.8,1.7c-0.4,1.1-0.6,3.2-0.6,6.4c0,3.1,0.2,5.2,0.6,6.4c0.4,1.1,1,1.7,1.8,1.7
			C150.4,59.8,151,59.3,151.4,58.1z"/>
	</g>
	<g>
		<path class="st0" d="M11.9,11.4c0,1.6-0.4,2.9-1.2,3.8C10,16,8.8,16.5,7.3,16.5c-1.5,0-2.7-0.4-3.6-1.3c-0.9-0.8-1.3-2.1-1.3-3.6
			V5.9c0-0.3-0.1-0.5-0.2-0.7C1.9,5,1.6,5,1.2,5c0-0.4,0.1-0.8,0.4-1.1h4.4C6.4,4.1,6.5,4.5,6.5,5C6.1,5,5.8,5,5.6,5.2
			C5.5,5.3,5.4,5.5,5.4,5.9V12c0,0.9,0.2,1.5,0.5,2.1c0.4,0.5,0.9,0.8,1.7,0.8s1.3-0.2,1.6-0.7c0.3-0.5,0.5-1.1,0.5-1.8V5.9
			c0-0.3-0.1-0.5-0.3-0.7C9.2,5,8.9,5,8.5,5c0-0.5,0.1-0.8,0.4-1.1h3.9C13,4.1,13.2,4.5,13.2,5c-0.4,0-0.8,0.1-1,0.2
			c-0.2,0.1-0.3,0.4-0.3,0.7L11.9,11.4L11.9,11.4z"/>
		<path class="st0" d="M22.5,4.7c0.8,0.7,1.2,1.7,1.2,3c0,0.8-0.2,1.5-0.6,2.1c-0.4,0.6-1,1.1-1.8,1.5c-0.8,0.4-1.8,0.5-2.9,0.5
			h-0.7v1.6c0,0.5,0.1,0.8,0.2,1.1c0.1,0.2,0.3,0.4,0.6,0.5c0.3,0.1,0.7,0.1,1.2,0.1c0,0.2,0,0.4-0.1,0.6c-0.1,0.2-0.2,0.4-0.3,0.5
			H14c-0.1-0.1-0.2-0.3-0.3-0.5c-0.1-0.2-0.1-0.4-0.1-0.6c0.4,0,0.7-0.1,0.9-0.2c0.2-0.1,0.3-0.4,0.3-0.7V5.9c0-0.3-0.1-0.6-0.3-0.7
			C14.3,5,14,5,13.6,5c0-0.4,0.1-0.8,0.4-1.1c0.8,0,1.9,0,3.2-0.1c0.7,0,1.1,0,1.4,0C20.4,3.7,21.7,4.1,22.5,4.7z M20.1,5.8
			c-0.3-0.5-0.9-0.7-1.7-0.7c-0.3,0-0.5,0-0.7,0.1v5.2c0.1,0,0.3,0,0.5,0c1,0,1.6-0.3,2-0.8c0.3-0.5,0.5-1.2,0.5-2
			C20.6,6.9,20.4,6.3,20.1,5.8z"/>
		<path class="st0" d="M38.3,5.9c0.1,1.1,0.2,2,0.2,2.7c-0.2,0.1-0.4,0.1-0.7,0.1c-0.3,0-0.6,0.1-0.9,0.1c-0.1-0.9-0.2-1.7-0.3-2.2
			c-0.2-0.5-0.4-0.9-0.6-1c-0.3-0.2-0.6-0.3-1.1-0.3h-0.3v8.9c0,0.3,0.2,0.6,0.5,0.7c0.3,0.2,0.8,0.2,1.4,0.2c0,0.2,0,0.4-0.1,0.6
			s-0.2,0.4-0.3,0.5h-6c-0.1-0.1-0.2-0.3-0.3-0.5c-0.1-0.2-0.1-0.4-0.1-0.6c1.3,0,2-0.3,2-1V5.3h-0.4c-1.2,0-2,1.2-2.1,3.5
			c-0.8,0-1.4-0.1-1.6-0.2c0-0.7,0.1-1.6,0.2-2.7c0.1-1.1,0.3-1.8,0.4-2.3c0.5,0,1,0.1,1.5,0.2h6.9c0.4-0.1,0.9-0.2,1.5-0.2
			C38,4.1,38.2,4.8,38.3,5.9z"/>
		<path class="st0" d="M41.2,15.7c-0.8-0.5-1.5-1.3-1.9-2.2c-0.4-1-0.7-2.1-0.7-3.4c0-1.3,0.2-2.5,0.7-3.5c0.4-1,1.1-1.7,1.9-2.2
			c0.8-0.5,1.8-0.8,2.9-0.8c1.1,0,2.1,0.3,2.9,0.8C47.9,5,48.5,5.7,49,6.7c0.4,1,0.7,2.1,0.7,3.4c0,1.3-0.2,2.5-0.7,3.4
			s-1.1,1.7-1.9,2.2c-0.8,0.5-1.8,0.8-2.9,0.8C43,16.5,42,16.2,41.2,15.7z M45.7,14.1c0.4-0.7,0.6-2.1,0.6-4.1
			c0-1.9-0.2-3.2-0.6-3.9C45.4,5.3,44.9,5,44.2,5c-0.7,0-1.2,0.4-1.6,1.1C42.2,6.8,42,8.2,42,10.1c0,1.9,0.2,3.2,0.6,3.9
			c0.4,0.8,0.9,1.1,1.6,1.1C44.8,15.2,45.3,14.8,45.7,14.1z"/>
	</g>
	<g>
		<path class="st0" d="M118.5,89.1c-1.2-0.8-2.1-1.8-2.7-3.2c-0.6-1.4-0.9-3-0.9-4.8c0-1.9,0.3-3.5,1-4.9c0.6-1.4,1.5-2.4,2.7-3.2
			c1.2-0.7,2.5-1.1,4.1-1.1c1.6,0,3,0.4,4.2,1.1c1.2,0.8,2.1,1.8,2.7,3.2c0.6,1.4,0.9,3,0.9,4.8c0,1.9-0.3,3.5-1,4.9
			s-1.6,2.4-2.7,3.2c-1.2,0.7-2.6,1.1-4.1,1.1C121.1,90.2,119.7,89.8,118.5,89.1z M125,86.8c0.6-1.1,0.9-3,0.9-5.8
			c0-2.7-0.3-4.5-0.8-5.6c-0.5-1.1-1.3-1.6-2.3-1.6c-0.9,0-1.7,0.5-2.3,1.6c-0.6,1.1-0.9,3-0.9,5.8c0,2.7,0.3,4.5,0.8,5.6
			c0.5,1.1,1.3,1.6,2.3,1.6C123.6,88.4,124.4,87.8,125,86.8z"/>
		<path class="st0" d="M140.8,79.8c0.2-0.3,0.3-0.8,0.3-1.5c0.4,0,0.8,0.1,1.2,0.2c0.4,0.1,0.7,0.2,1,0.4v4.7
			c-0.3,0.2-0.6,0.3-1,0.4c-0.4,0.1-0.8,0.2-1.2,0.2c0-0.7-0.1-1.2-0.3-1.5c-0.2-0.3-0.5-0.4-1-0.4h-2.1v4.5c0,0.5,0.1,0.9,0.3,1.1
			c0.2,0.2,0.7,0.4,1.3,0.4h2c0,0.8-0.2,1.4-0.5,1.7h-8.5c-0.2-0.2-0.3-0.4-0.4-0.7c-0.1-0.3-0.2-0.6-0.2-0.9c0.7,0,1.1-0.1,1.4-0.3
			c0.2-0.2,0.4-0.5,0.4-1V75.1c0-0.5-0.1-0.8-0.4-1s-0.7-0.3-1.2-0.3c0-0.6,0.2-1.2,0.6-1.6h9.7c0.7-0.3,1.3-0.4,1.9-0.4
			c0.2,0.4,0.4,1,0.6,1.9c0.2,0.9,0.3,1.5,0.3,2c-0.2,0.2-0.5,0.4-1,0.6c-0.4,0.2-0.8,0.3-1.2,0.4c-0.2-0.6-0.5-1.2-1-1.6
			c-0.5-0.4-1.1-0.6-1.9-0.6h-2.2v5.9h2.1C140.3,80.3,140.6,80.1,140.8,79.8z"/>
		<path class="st0" d="M155.1,79.8c0.2-0.3,0.3-0.8,0.3-1.5c0.4,0,0.8,0.1,1.2,0.2c0.4,0.1,0.7,0.2,1,0.4v4.7
			c-0.3,0.2-0.6,0.3-1,0.4c-0.4,0.1-0.8,0.2-1.2,0.2c0-0.7-0.1-1.2-0.3-1.5c-0.2-0.3-0.5-0.4-1-0.4H152v4.5c0,0.5,0.1,0.9,0.3,1.1
			s0.7,0.4,1.3,0.4h2c0,0.8-0.2,1.4-0.5,1.7h-8.5c-0.2-0.2-0.3-0.4-0.4-0.7c-0.1-0.3-0.2-0.6-0.2-0.9c0.7,0,1.1-0.1,1.4-0.3
			c0.2-0.2,0.4-0.5,0.4-1V75.1c0-0.5-0.1-0.8-0.4-1s-0.7-0.3-1.2-0.3c0-0.6,0.2-1.2,0.6-1.6h9.7c0.7-0.3,1.3-0.4,1.9-0.4
			c0.2,0.4,0.4,1,0.6,1.9s0.3,1.5,0.3,2c-0.2,0.2-0.5,0.4-1,0.6c-0.4,0.2-0.8,0.3-1.2,0.4c-0.2-0.6-0.5-1.2-1-1.6
			c-0.5-0.4-1.1-0.6-1.9-0.6H152v5.9h2.1C154.6,80.3,154.9,80.1,155.1,79.8z"/>
	</g>
	<g>
		<path class="st0" d="M51.1,72.9c0.6,1.7,1,3.5,1,5.4c0,3.6-1.3,6.7-3.9,9.3c-2.6,2.6-6.9,3.8-12.8,3.8c-2.2,0-5.1-0.3-8.8-0.8
			c-4-0.5-7.4-0.8-10-0.8c-4.7,0-8.7,0.7-12,2l0.1-0.1l-0.2,0.1l-3.1-2.4c0.6-3.5,1.8-6.7,3.5-9.7c1.7-3,3.5-5.6,5.5-7.9
			c1.9-2.3,4.5-5.1,7.8-8.3c3.2-3.2,5.7-5.9,7.5-8c1.8-2.2,3.4-4.6,4.6-7.2c1.2-2.6,1.8-5.5,1.8-8.5c0-3.7-0.9-6.5-2.6-8.3
			c-1.8-1.8-4.1-2.8-7-2.8c-3.8,0-6.7,1.4-8.8,4.3c1.7,0.5,3,1.4,4.1,2.9c1,1.5,1.6,3,1.6,4.6c0,2.3-0.9,4.2-2.8,5.7
			c-1.8,1.5-4,2.2-6.4,2.2c-2.5,0-4.7-0.9-6.5-2.7C1.9,43.9,1,41.5,1,38.5c0-3,1-5.7,3.1-8.3c2-2.5,4.9-4.6,8.7-6.1
			c3.7-1.5,8-2.3,12.8-2.3c7.1,0,12.9,1.7,17.4,5c4.5,3.3,6.8,8.2,6.8,14.5c0,4.1-1,7.7-2.9,10.8c-1.9,3.1-4.3,5.8-7.1,7.9
			c-2.8,2.2-6.5,4.7-11.1,7.5c-4.1,2.6-7.3,4.8-9.7,6.6c-2.4,1.8-4.4,3.9-5.9,6.1c2-0.8,4.4-1.6,7.1-2.2c2.7-0.6,5.2-0.9,7.5-0.9
			h5.2c3.2,0,6-0.7,8.4-2.2c2.4-1.5,4-3.5,4.7-6.1h2.7C49.6,69.9,50.5,71.2,51.1,72.9z"/>
		<path class="st0" d="M97.1,50.7c3.4,1.8,6,4.2,7.9,7.3c1.8,3.1,2.8,6.7,2.8,10.7c0,4.1-1.1,7.9-3.3,11.3c-2.2,3.5-5.4,6.3-9.7,8.4
			s-9.3,3.2-15.1,3.2c-4.5,0-8.5-0.6-11.9-1.8c-3.5-1.2-6.1-2.9-8-5c-1.9-2.1-2.8-4.5-2.8-7.3c0-2.7,0.8-4.8,2.4-6.3
			c1.6-1.6,3.6-2.3,6-2.3c2.3,0,4.1,0.7,5.6,2c1.5,1.4,2.2,3.1,2.2,5.2c0,1.2-0.3,2.3-1,3.3c-0.6,0.9-1.7,1.8-3.1,2.7
			c2.1,0.9,4.5,1.4,7.2,1.4c4.3,0,7.7-1.3,10.1-3.8C88.7,77,90,73.8,90,70c0-4.4-1.3-7.7-3.7-10c-2.5-2.2-6-3.4-10.5-3.4
			c-1.9,0-3.8,0.2-5.8,0.6c-2,0.4-3.7,0.9-5.2,1.6L61,54.4l3.3-31.5h21.4c3.6,0,6.6-0.2,9-0.7c2.4-0.5,4.4-1.2,5.9-2.2h2.2
			c0.8,0.6,1.5,1.7,2,3c0.5,1.4,0.8,2.8,0.8,4.4c0,2.9-1,5.1-3.1,6.6c-2,1.6-4.6,2.3-7.7,2.3c-2.1,0-4.1-0.3-6-0.8
			c-1.8-0.5-4-1.3-6.4-2.3c-3.5-1.5-6.4-2.4-8.7-2.6l-2.3,20.6C76.4,49.1,80.9,48,85,48C89.7,48,93.7,48.9,97.1,50.7z"/>
	</g>
</g>
</svg>
